<?xml version="1.0" encoding="utf-8"?>
<!-- Generator: Adobe Illustrator 22.0.1, SVG Export Plug-In . SVG Version: 6.00 Build 0)  -->
<svg version="1.1" id="Livello_1" xmlns="http://www.w3.org/2000/svg" xmlns:xlink="http://www.w3.org/1999/xlink" x="0px" y="0px"
	 viewBox="0 0 2000 1000" style="enable-background:new 0 0 2000 1000;" xml:space="preserve">
<g>
	<path d="M295.9,515.8V410.3h37.4c8.5,0,16,1.4,22.4,4.2c6.4,2.8,11.7,6.5,16,11.3c4.3,4.8,7.6,10.3,9.7,16.7
		c2.2,6.4,3.3,13.2,3.3,20.4c0,8-1.2,15.3-3.6,21.8c-2.4,6.5-5.9,12-10.3,16.6c-4.5,4.6-9.9,8.2-16.2,10.7
		c-6.3,2.5-13.4,3.8-21.3,3.8H295.9z M367.9,462.9c0-5.5-0.8-10.6-2.3-15.3s-3.8-8.6-6.8-12c-3-3.3-6.6-5.9-10.8-7.8
		c-4.3-1.9-9.1-2.8-14.6-2.8h-20.8v76.1h20.8c5.6,0,10.5-1,14.8-2.9c4.3-1.9,7.9-4.6,10.8-8c2.9-3.4,5.1-7.4,6.6-12.1
		S367.9,468.4,367.9,462.9z"/>
	<path d="M464.1,501.6c5.5,0,10.2-1.1,13.8-3.3s6.6-5,8.8-8.5c2.2-3.5,3.8-7.5,4.8-12c0.9-4.5,1.4-9.1,1.4-13.9v-53.5h16.8v53.5
		c0,7.2-0.8,14-2.5,20.4c-1.7,6.4-4.4,12-8,16.8c-3.7,4.8-8.4,8.6-14.2,11.4c-5.8,2.8-12.8,4.2-20.9,4.2c-8.4,0-15.5-1.5-21.3-4.4
		c-5.8-2.9-10.5-6.8-14-11.7c-3.6-4.9-6.1-10.5-7.7-16.9c-1.6-6.3-2.4-12.9-2.4-19.8v-53.5h16.6v53.5c0,4.9,0.5,9.5,1.4,14
		c0.9,4.5,2.5,8.5,4.8,12c2.2,3.5,5.2,6.3,8.9,8.5C454.1,500.5,458.7,501.6,464.1,501.6z"/>
	<path d="M576.3,410.3h14.6l41.6,105.5H615l-11.1-28.7h-40.7l-11,28.7h-17.7L576.3,410.3z M600.6,474.8l-16.9-45.3l-17.5,45.3H600.6
		z"/>
	<path d="M663.4,515.8V410.3h16.6v90.8h56.6v14.7H663.4z"/>
	<path d="M896,506.6v9.2h-70.9V410.3h69.5v9.2h-59.1v38h51.6v8.8h-51.6v40.3H896z"/>
	<path d="M932.7,410.3l34.6,46.1l34.6-46.1h11.5l-40.6,53.5l39.4,52h-11.4l-33.4-44.6l-33.4,44.6h-11.7l39.4-52l-40.6-53.5H932.7z"
		/>
	<path d="M1045.2,515.8V410.3h43.7c4.6,0,8.7,1,12.6,2.9c3.8,1.9,7.1,4.5,9.9,7.6c2.8,3.1,4.9,6.7,6.5,10.6c1.6,4,2.4,8,2.4,12
		c0,4.4-0.7,8.5-2.2,12.6s-3.6,7.6-6.2,10.6c-2.7,3.1-5.9,5.6-9.6,7.4c-3.7,1.9-7.8,2.8-12.4,2.8h-34.2v38.9H1045.2z M1055.6,467.7
		h33.7c3.1,0,5.9-0.7,8.4-2c2.5-1.3,4.7-3.1,6.5-5.4c1.8-2.2,3.2-4.8,4.2-7.7c1-2.9,1.5-6,1.5-9.1c0-3.3-0.6-6.4-1.7-9.3
		c-1.1-2.9-2.7-5.5-4.6-7.7c-1.9-2.2-4.2-3.9-6.8-5.1c-2.6-1.2-5.4-1.9-8.2-1.9h-32.8V467.7z"/>
	<path d="M1197.9,516.6c-7.3,0-14-1.5-20.1-4.5c-6.1-3-11.3-7-15.7-12c-4.4-5-7.7-10.7-10.1-17.2c-2.4-6.4-3.6-13-3.6-19.8
		c0-7,1.3-13.8,3.8-20.2c2.5-6.4,6-12.1,10.5-17.1c4.5-4.9,9.7-8.9,15.7-11.8c6-2.9,12.6-4.4,19.6-4.4c7.3,0,14.1,1.6,20.1,4.7
		c6.1,3.1,11.3,7.2,15.6,12.3c4.3,5.1,7.6,10.8,10,17.2c2.4,6.4,3.6,12.9,3.6,19.5c0,7-1.3,13.8-3.8,20.2c-2.5,6.4-6,12.1-10.4,17
		c-4.4,4.9-9.6,8.8-15.7,11.7C1211.5,515.1,1205,516.6,1197.9,516.6z M1158.8,463.1c0,5.7,0.9,11.3,2.8,16.6c1.9,5.3,4.5,10,8,14.1
		c3.5,4.1,7.6,7.4,12.3,9.8c4.8,2.4,10.1,3.6,15.9,3.6c5.9,0,11.3-1.3,16.2-3.9c4.9-2.6,9-5.9,12.3-10.1c3.4-4.2,6-8.9,7.8-14.1
		c1.8-5.2,2.8-10.6,2.8-16c0-5.7-1-11.3-2.9-16.6c-1.9-5.3-4.6-10-8.1-14.1c-3.5-4.1-7.6-7.3-12.3-9.7c-4.8-2.4-10-3.6-15.8-3.6
		c-5.9,0-11.3,1.3-16.2,3.8c-4.9,2.5-9,5.9-12.3,10c-3.4,4.2-6,8.9-7.8,14.1C1159.8,452.3,1158.8,457.6,1158.8,463.1z"/>
	<path d="M1346.5,430.1c-3-3.4-6.9-6.1-11.9-8.2c-5-2.1-10.6-3.1-16.9-3.1c-9.3,0-16.1,1.8-20.4,5.3c-4.3,3.5-6.4,8.3-6.4,14.3
		c0,3.2,0.6,5.8,1.7,7.8c1.1,2,2.9,3.8,5.3,5.3s5.4,2.8,9.1,3.9c3.7,1.1,8.1,2.2,13.1,3.3c5.6,1.2,10.7,2.5,15.2,4
		c4.5,1.5,8.3,3.3,11.5,5.6c3.2,2.2,5.6,4.9,7.3,8.1c1.7,3.2,2.5,7.1,2.5,11.9c0,4.9-0.9,9.1-2.8,12.6c-1.9,3.6-4.5,6.5-7.9,8.9
		c-3.4,2.4-7.4,4.1-12,5.3c-4.7,1.1-9.8,1.7-15.3,1.7c-16.3,0-30.5-5.1-42.4-15.3l5.2-8.5c1.9,2,4.1,3.9,6.8,5.6
		c2.6,1.8,5.6,3.3,8.8,4.7c3.2,1.3,6.7,2.4,10.3,3.1c3.7,0.7,7.5,1.1,11.6,1.1c8.4,0,15-1.5,19.7-4.5s7.1-7.6,7.1-13.7
		c0-3.3-0.7-6-2-8.2c-1.3-2.2-3.3-4.2-6-5.8c-2.7-1.6-6-3-10-4.2c-4-1.2-8.6-2.4-13.8-3.6c-5.6-1.3-10.4-2.6-14.6-4
		c-4.2-1.4-7.7-3.1-10.6-5.2c-2.9-2.1-5-4.6-6.5-7.5c-1.4-2.9-2.2-6.5-2.2-10.8c0-4.8,0.9-9.2,2.7-13c1.8-3.8,4.4-7,7.8-9.5
		c3.4-2.5,7.3-4.5,11.9-5.8s9.6-2,15.2-2c7,0,13.3,1.1,18.8,3.2c5.5,2.1,10.5,5.1,14.9,9L1346.5,430.1z"/>
	<path d="M1435.7,507.2c6.6,0,12.2-1.3,16.6-3.8c4.4-2.5,7.9-5.8,10.5-10c2.6-4.1,4.5-8.8,5.5-14.1c1-5.2,1.6-10.5,1.6-15.9v-53.2
		h10.4v53.2c0,7.1-0.8,13.9-2.4,20.3c-1.6,6.4-4.1,12-7.6,16.9c-3.5,4.8-8.1,8.7-13.7,11.6c-5.6,2.9-12.5,4.3-20.7,4.3
		c-8.3,0-15.3-1.5-21-4.5c-5.7-3-10.3-7-13.7-12c-3.5-4.9-5.9-10.6-7.4-16.9c-1.5-6.3-2.2-12.9-2.2-19.6v-53.2h10.3v53.2
		c0,5.6,0.5,10.9,1.6,16.2s2.9,9.9,5.6,14c2.6,4.1,6.1,7.3,10.5,9.8C1423.7,506,1429.2,507.2,1435.7,507.2z"/>
	<path d="M1522.9,515.8V410.3h44.6c4.6,0,8.7,1,12.6,2.9c3.8,1.9,7.1,4.5,9.9,7.6c2.8,3.1,4.9,6.7,6.5,10.6c1.5,4,2.3,8,2.3,12
		c0,3.9-0.6,7.6-1.7,11.1c-1.1,3.5-2.7,6.7-4.8,9.5c-2,2.8-4.5,5.2-7.4,7.1c-2.9,1.9-6.1,3.3-9.7,3.9l25.9,40.7h-11.7l-24.8-38.9
		h-31.2v38.9H1522.9z M1533.3,467.7h34.5c3.1,0,5.9-0.7,8.4-2c2.5-1.3,4.7-3.1,6.5-5.4c1.8-2.3,3.2-4.8,4.2-7.7
		c1-2.9,1.5-5.9,1.5-9.1s-0.6-6.2-1.7-9.1c-1.1-2.9-2.7-5.5-4.6-7.7c-1.9-2.2-4.2-3.9-6.8-5.2c-2.6-1.3-5.4-1.9-8.2-1.9h-33.6V467.7
		z"/>
	<path d="M1708.7,506.6v9.2h-70.9V410.3h69.5v9.2h-59.1v38h51.6v8.8h-51.6v40.3H1708.7z"/>
	<path d="M314.7,560.8c-2.3-2.5-5.5-3.8-9.7-3.8c-3.4,0-5.9,0.7-7.5,2c-1.6,1.3-2.4,3.1-2.4,5.3c0,1.1,0.2,2.1,0.6,2.8
		c0.4,0.7,1,1.4,1.9,1.9c0.8,0.5,1.9,1,3.2,1.3c1.3,0.4,2.8,0.7,4.7,1.1c1.9,0.4,3.6,0.8,5.1,1.3c1.5,0.5,2.8,1.1,3.9,1.8
		c1.1,0.7,1.9,1.6,2.5,2.7s0.9,2.4,0.9,3.9c0,1.5-0.3,2.9-0.9,4.1c-0.6,1.2-1.5,2.1-2.6,2.9c-1.1,0.8-2.4,1.4-4,1.8
		c-1.5,0.4-3.2,0.6-5.1,0.6c-5.5,0-10.1-1.8-13.9-5.3l1.3-2c1.5,1.6,3.3,2.8,5.4,3.7c2.1,0.9,4.6,1.4,7.2,1.4c3.1,0,5.5-0.6,7.2-1.7
		c1.7-1.1,2.6-2.8,2.6-5.1c0-1.1-0.2-2.1-0.7-3c-0.5-0.8-1.1-1.5-2.1-2.1c-0.9-0.6-2.1-1.1-3.4-1.5c-1.4-0.4-3-0.8-4.9-1.2
		c-1.9-0.4-3.5-0.8-5-1.3c-1.4-0.4-2.6-1-3.6-1.7c-1-0.7-1.7-1.5-2.2-2.5c-0.5-1-0.7-2.2-0.7-3.6c0-1.6,0.3-3,0.9-4.2
		c0.6-1.2,1.5-2.2,2.6-3.1c1.1-0.8,2.4-1.5,3.9-1.9c1.5-0.4,3.2-0.7,5.1-0.7c2.3,0,4.3,0.3,6.1,1c1.8,0.7,3.4,1.7,4.9,3.1
		L314.7,560.8z"/>
	<path d="M596.2,557.2h-12.9v32.9h-2.5v-32.9h-12.9V555h28.3V557.2z"/>
	<path d="M863.4,588c2.4,0,4.3-0.4,5.9-1.3c1.6-0.9,2.8-2.1,3.7-3.5c0.9-1.5,1.6-3.1,1.9-5c0.4-1.9,0.6-3.7,0.6-5.6V555h2.5v17.7
		c0,2.3-0.3,4.6-0.8,6.7c-0.5,2.2-1.3,4-2.5,5.7s-2.7,2.9-4.5,3.9c-1.9,1-4.1,1.4-6.8,1.4c-2.8,0-5.2-0.5-7-1.5
		c-1.9-1-3.4-2.3-4.5-4c-1.1-1.7-1.9-3.6-2.4-5.7c-0.5-2.1-0.7-4.3-0.7-6.5V555h2.5v17.7c0,1.9,0.2,3.8,0.6,5.7c0.4,1.9,1,3.5,2,4.9
		c0.9,1.4,2.2,2.6,3.7,3.5C859.1,587.6,861.1,588,863.4,588z"/>
	<path d="M1134.4,590.1V555h11.7c2.8,0,5.2,0.5,7.3,1.4c2.1,0.9,3.8,2.2,5.2,3.8c1.4,1.6,2.4,3.4,3.1,5.6c0.7,2.1,1,4.4,1,6.8
		c0,2.7-0.4,5.1-1.2,7.3c-0.8,2.2-1.9,4-3.3,5.6s-3.2,2.7-5.3,3.6c-2.1,0.8-4.4,1.3-6.9,1.3H1134.4z M1160.2,572.5
		c0-2.2-0.3-4.3-0.9-6.1c-0.6-1.9-1.5-3.5-2.7-4.8s-2.7-2.4-4.4-3.2c-1.7-0.7-3.8-1.1-6-1.1h-9.2v30.6h9.2c2.3,0,4.3-0.4,6.1-1.2
		c1.8-0.8,3.3-1.9,4.4-3.2c1.2-1.4,2.1-3,2.7-4.9C1159.9,576.7,1160.2,574.7,1160.2,572.5z"/>
	<path d="M1417.4,590.1V555h2.5v35.2H1417.4z"/>
	<path d="M1690.8,590.4c-2.4,0-4.7-0.5-6.7-1.5c-2-1-3.7-2.4-5.2-4c-1.5-1.7-2.6-3.6-3.4-5.7c-0.8-2.2-1.2-4.3-1.2-6.6
		c0-2.3,0.4-4.6,1.3-6.7c0.8-2.2,2-4.1,3.5-5.7c1.5-1.7,3.2-3,5.2-3.9c2-1,4.2-1.5,6.5-1.5c2.4,0,4.7,0.5,6.7,1.6s3.8,2.4,5.2,4.1
		c1.4,1.7,2.6,3.6,3.3,5.7c0.8,2.1,1.2,4.3,1.2,6.5c0,2.4-0.4,4.6-1.3,6.8c-0.8,2.2-2,4-3.5,5.7c-1.5,1.6-3.2,2.9-5.2,3.9
		C1695.3,589.9,1693.2,590.4,1690.8,590.4z M1676.9,572.5c0,2,0.3,4,1,5.8c0.7,1.9,1.6,3.5,2.9,5c1.2,1.4,2.7,2.6,4.4,3.4
		c1.7,0.9,3.6,1.3,5.6,1.3c2.1,0,4-0.4,5.7-1.3c1.7-0.9,3.2-2.1,4.4-3.5c1.2-1.5,2.1-3.1,2.8-5c0.7-1.9,1-3.7,1-5.6c0-2-0.4-4-1-5.8
		c-0.7-1.9-1.7-3.5-2.9-5c-1.2-1.4-2.7-2.6-4.4-3.4c-1.7-0.9-3.5-1.3-5.6-1.3c-2.1,0-4,0.4-5.7,1.3c-1.7,0.9-3.2,2.1-4.4,3.5
		c-1.2,1.5-2.2,3.1-2.8,5C1677.2,568.7,1676.9,570.6,1676.9,572.5z"/>
</g>
</svg>
