<svg id="Livello_1" data-name="Livello 1" xmlns="http://www.w3.org/2000/svg" viewBox="0 0 2000 2000"><defs><style>.cls-1{fill:#fafafa;}</style></defs><title>COMMERCIAL-3</title><path class="cls-1" d="M1097.52,996.09a14.89,14.89,0,0,0,2.37-4.51,16.7,16.7,0,0,0,.86-5.32,14.56,14.56,0,0,0-1-5.37,16,16,0,0,0-2.66-4.46,12.06,12.06,0,0,0-3.9-3,10.49,10.49,0,0,0-4.7-1.09h-19.85v28h20.42a10.07,10.07,0,0,0,4.8-1.14A11.53,11.53,0,0,0,1097.52,996.09Z"/><polygon class="cls-1" points="1266.33 1005.74 1291.03 1005.74 1278.87 974.58 1266.33 1005.74"/><path class="cls-1" d="M752.62,980a23.73,23.73,0,0,0-7.31-5.84A20.05,20.05,0,0,0,736,972a20.27,20.27,0,0,0-9.69,2.28,23.46,23.46,0,0,0-7.27,6,27.56,27.56,0,0,0-4.61,8.45,30.25,30.25,0,0,0,0,19.62,27.56,27.56,0,0,0,4.7,8.5,22.73,22.73,0,0,0,7.32,5.89,20.54,20.54,0,0,0,9.5,2.19,20,20,0,0,0,9.69-2.33,23.74,23.74,0,0,0,7.27-6.08,27.3,27.3,0,0,0,4.56-8.5,30.64,30.64,0,0,0,1.57-9.6,30.09,30.09,0,0,0-1.67-9.93A26.42,26.42,0,0,0,752.62,980Z"/><path class="cls-1" d="M0,0V2000H2000V0ZM1602.6,1254.57A656.11,656.11,0,1,1,1654,1000,651.79,651.79,0,0,1,1602.6,1254.57Z"/><path class="cls-1" d="M1456.79,543.21a643.91,643.91,0,1,0,138.45,205.34A643.86,643.86,0,0,0,1456.79,543.21Zm-777,480.53a28.54,28.54,0,0,1-6.56,4.89,33.15,33.15,0,0,1-7.74,3,32,32,0,0,1-8,1,26.94,26.94,0,0,1-12.73-3,34.11,34.11,0,0,1-10-7.93A36.08,36.08,0,0,1,628,985.83,33.9,33.9,0,0,1,634.25,975a31.84,31.84,0,0,1,10.12-7.74A30.42,30.42,0,0,1,658,964.32a28.41,28.41,0,0,1,15.48,4.08A25.43,25.43,0,0,1,683,979l-6.75,4.37a19.32,19.32,0,0,0-3.66-5.41,18.65,18.65,0,0,0-4.65-3.52,20.37,20.37,0,0,0-5.18-1.9,24.82,24.82,0,0,0-5.22-.57,20.63,20.63,0,0,0-9.93,2.33,23,23,0,0,0-7.27,6.08,26.34,26.34,0,0,0-4.42,8.45,31.58,31.58,0,0,0-1.47,9.46,29.23,29.23,0,0,0,1.76,10.12,27.93,27.93,0,0,0,4.89,8.5,23.87,23.87,0,0,0,7.41,5.89,20.23,20.23,0,0,0,9.31,2.18,23.8,23.8,0,0,0,5.46-.66,20,20,0,0,0,5.37-2.14,22.89,22.89,0,0,0,4.8-3.71,17.91,17.91,0,0,0,3.66-5.36l7.12,3.89A21,21,0,0,1,679.76,1023.74Zm85.5-12.3a35.91,35.91,0,0,1-6.65,10.88,32.16,32.16,0,0,1-10.07,7.5,28.93,28.93,0,0,1-12.69,2.8,28.63,28.63,0,0,1-13-2.9,32,32,0,0,1-10-7.69,35.2,35.2,0,0,1-6.46-11,36.24,36.24,0,0,1-2.28-12.64,35,35,0,0,1,2.43-12.92,35.5,35.5,0,0,1,6.7-10.92A32.12,32.12,0,0,1,723.36,967a29.06,29.06,0,0,1,12.68-2.8,27.79,27.79,0,0,1,12.92,3,33.15,33.15,0,0,1,10,7.84,36.34,36.34,0,0,1,8.74,23.47A35.2,35.2,0,0,1,765.26,1011.44Zm95.42,20.71h-8.55V980l-22.42,40h-4.84l-22.52-40v52.16H793.8V964.7h9l24.41,43.79,24.51-43.79h8.93Zm97.28,0h-8.55V980L927,1020h-4.84l-22.52-40v52.16h-8.55V964.7h9l24.41,43.79L949,964.7H958Zm76.19,0H988.36V964.7h44.94v7.6H996.91v21.85h31.64v7.12H996.91v23.28h37.24Zm67.74,0-15.39-24.23h-17.86v24.23h-8.55V964.7H1089a18.22,18.22,0,0,1,8.21,1.85,20.42,20.42,0,0,1,6.46,4.94,23.47,23.47,0,0,1,4.23,6.93,21.26,21.26,0,0,1,1.52,7.84,23,23,0,0,1-1,6.79,20.66,20.66,0,0,1-2.85,5.94,18.76,18.76,0,0,1-4.46,4.56,17.36,17.36,0,0,1-5.84,2.76l16.34,25.84Zm84.4-8.41a28.49,28.49,0,0,1-6.55,4.89,33.15,33.15,0,0,1-7.74,3,32.07,32.07,0,0,1-8,1,26.91,26.91,0,0,1-12.73-3,34,34,0,0,1-10-7.93,36.52,36.52,0,0,1-6.55-11.12,35.53,35.53,0,0,1-.19-24.8,33.53,33.53,0,0,1,6.27-10.83,31.73,31.73,0,0,1,10.12-7.74,30.38,30.38,0,0,1,13.58-2.94A28.42,28.42,0,0,1,1180,968.4a25.47,25.47,0,0,1,9.59,10.64l-6.74,4.37a19.76,19.76,0,0,0-3.66-5.41,18.88,18.88,0,0,0-4.66-3.52,20.3,20.3,0,0,0-5.17-1.9,25,25,0,0,0-5.23-.57,20.66,20.66,0,0,0-9.93,2.33,22.91,22.91,0,0,0-7.26,6.08,26.14,26.14,0,0,0-4.42,8.45,31.58,31.58,0,0,0-1.47,9.46,29.22,29.22,0,0,0,1.75,10.12,28.16,28.16,0,0,0,4.9,8.5,23.87,23.87,0,0,0,7.41,5.89,20.23,20.23,0,0,0,9.31,2.18,23.8,23.8,0,0,0,5.46-.66,20,20,0,0,0,5.37-2.14,22.59,22.59,0,0,0,4.79-3.71,17.91,17.91,0,0,0,3.66-5.36l7.13,3.89A20.85,20.85,0,0,1,1186.29,1023.74Zm38,8.41h-8.55V964.7h8.55Zm76.57,0-8-19.76h-28.31l-7.88,19.76h-9.12l27.64-67.45h7.22l27.55,67.45Zm78.56,0H1333.3V964.7h8.55v59.85h37.62Z"/></svg>