<svg id="Livello_1" data-name="Livello 1" xmlns="http://www.w3.org/2000/svg" viewBox="0 0 181.5 111.6"><defs><style>.cls-1{fill:#262626;}.cls-2{fill:#2e2e2e;}.cls-3{fill:none;}</style></defs><title>LogoDUALEXPOSURE</title><path class="cls-1" d="M181.5,19.2V47.6h-2.9a25.1,25.1,0,0,0-25-24.9H50.4a25.1,25.1,0,0,0-25,24.9H22.5V19.2Z" transform="translate(-22.5 -19.2)"/><path class="cls-1" d="M181.5,102.4v28.4H22.5V102.4h2.9a26,26,0,0,0,8.4,18.7,25.29,25.29,0,0,0,16.5,6.3H153.5a25.09,25.09,0,0,0,24.9-25Z" transform="translate(-22.5 -19.2)"/><path class="cls-1" d="M69.3,73.1v3.8H67.2A13.66,13.66,0,0,0,53.3,90.8v5.8H50.4V53.4h2.9v5.8a14.76,14.76,0,0,0,3.8,9.6,15.12,15.12,0,0,0,10.1,4.4h2.1Z" transform="translate(-22.5 -19.2)"/><path class="cls-1" d="M153.6,53.4V96.6h-2.9V90.8a14,14,0,0,0-8.2-12.7V71.9a14.12,14.12,0,0,0,6.3-5.8,13.7,13.7,0,0,0,1.9-6.9V53.4Z" transform="translate(-22.5 -19.2)"/><path class="cls-1" d="M110.8,89.2a74.39,74.39,0,0,1-13.8,17,74.94,74.94,0,0,1-24,14.5H63.9v-2.8h7.9V95.5a77.42,77.42,0,0,0,19.6-.4A78.83,78.83,0,0,0,110.8,89.2Z" transform="translate(-22.5 -19.2)"/><path class="cls-1" d="M120.5,98.8a70.21,70.21,0,0,1-2.4,17.1,35.31,35.31,0,0,1-4.4,1.8c-.4.1-1.3.4-2.9.8a54.52,54.52,0,0,1-7.3,1.4,53.29,53.29,0,0,1-7,.6c-2.2.1-3.8.1-5.6.2H79a76.57,76.57,0,0,0,26.2-19.8,75.54,75.54,0,0,0,13-22.1A72.74,72.74,0,0,1,120.5,98.8Z" transform="translate(-22.5 -19.2)"/><path class="cls-1" d="M139.1,87.5c-1.1,5.4-4,16.2-13.5,23.8a33.37,33.37,0,0,1-4.8,3.2,74.74,74.74,0,0,0-4.7-48.2,73.44,73.44,0,0,1,13.5,10.2A72.26,72.26,0,0,1,139.1,87.5Z" transform="translate(-22.5 -19.2)"/><path class="cls-1" d="M140.3,75.6a77.72,77.72,0,0,1-.6,8.7,78.09,78.09,0,0,0-15.3-15.4,74,74,0,0,0-18.5-10.1,76.77,76.77,0,0,1,14.9-2.3,78.79,78.79,0,0,1,17.3,1.2c.4,1.4.8,3.2,1.2,5.3.5,2.6.6,4.6.8,6C140.3,72.3,140.3,74.8,140.3,75.6Z" transform="translate(-22.5 -19.2)"/><path class="cls-1" d="M137.2,55.3a75,75,0,0,0-24.1-.3,73,73,0,0,0-19.9,5.9,72.6,72.6,0,0,1,26.2-26,29.23,29.23,0,0,1,5.2,3.2A36.34,36.34,0,0,1,137.2,55.3Z" transform="translate(-22.5 -19.2)"/><path class="cls-2" d="M116.9,33.6A76.74,76.74,0,0,0,99,48.9,73.85,73.85,0,0,0,85.9,71.2a75.75,75.75,0,0,1-2-25.5,74.12,74.12,0,0,1,3.5-16.3h5.4a73.87,73.87,0,0,1,8.5.5,60.41,60.41,0,0,1,9.5,1.7A48.55,48.55,0,0,1,116.9,33.6Z" transform="translate(-22.5 -19.2)"/><path class="cls-1" d="M98.2,91.2a73.11,73.11,0,0,1-14.3,2.2,67.85,67.85,0,0,1-12.2-.3v-19A74.88,74.88,0,0,0,98.2,91.2Z" transform="translate(-22.5 -19.2)"/><path class="cls-1" d="M87.8,83.8A75.58,75.58,0,0,1,78.2,77a67.18,67.18,0,0,1-6.6-6.2V32.1H63.7V29.3H84.9a74.68,74.68,0,0,0-3.7,20.6A76.3,76.3,0,0,0,87.8,83.8Z" transform="translate(-22.5 -19.2)"/><line class="cls-3" y1="101.6" x2="158.9" y2="101.6"/><path class="cls-3" d="M22.5,0" transform="translate(-22.5 -19.2)"/><path class="cls-3" d="M22.5,19.2" transform="translate(-22.5 -19.2)"/><path class="cls-3" d="M22.5,130.8" transform="translate(-22.5 -19.2)"/><path class="cls-3" d="M22.5,19.2" transform="translate(-22.5 -19.2)"/><line class="cls-3" x1="159" x2="181.5"/></svg>