<svg id="Livello_1" data-name="Livello 1" xmlns="http://www.w3.org/2000/svg" xmlns:xlink="http://www.w3.org/1999/xlink" viewBox="0 0 113.39 79.58"><defs><style>.cls-1{fill:url(#Sfumatura_senza_nome_190);}</style><linearGradient id="Sfumatura_senza_nome_190" x1="96.24" y1="79.35" x2="-7.75" y2="-24.64" gradientUnits="userSpaceOnUse"><stop offset="0" stop-color="#181830"/><stop offset="1" stop-color="#ff4848"/></linearGradient></defs><title>Logo</title><path class="cls-1" d="M113.39,0V20.26h-2.07A18,18,0,0,0,93.49,2.5H19.9A18,18,0,0,0,2.07,20.26H0V0Zm-2.21,59.33A17.92,17.92,0,0,1,93.42,77.17H19.82a17.88,17.88,0,0,1-11.76-4.5,18.58,18.58,0,0,1-6-13.33H0V79.59H113.39V59.34ZM33.37,38.51H31.88a10.63,10.63,0,0,1-7.21-3.13A10.51,10.51,0,0,1,22,28.53V24.4H19.9V55.2H22V50.71a9.79,9.79,0,0,1,9.92-9.56h1.49V38.51ZM91.42,24.4v4.13a10.16,10.16,0,0,1-5.85,9.06V42a9.94,9.94,0,0,1,5.85,9.06V55.2h2.07V24.4ZM49.13,54.13a53.59,53.59,0,0,1-14,.29v16H29.52v2H36A54,54,0,0,0,53.13,62.05,53.59,53.59,0,0,0,63,49.92,55.08,55.08,0,0,1,49.13,54.13ZM68.25,42.51A52.49,52.49,0,0,1,59,58.27,54.24,54.24,0,0,1,40.29,72.39h8.49c1.28-.07,2.42-.07,4-.14a30,30,0,0,0,5-.43,42.43,42.43,0,0,0,5.21-1c1.14-.29,1.78-.5,2.07-.57A23.92,23.92,0,0,0,68.17,69a52.49,52.49,0,0,0,.08-26.45Zm8.12-1.64a53.48,53.48,0,0,0-9.62-7.28A53.34,53.34,0,0,1,70.1,68a22.42,22.42,0,0,0,3.42-2.29c6.78-5.42,8.85-13.12,9.63-17A50.91,50.91,0,0,0,76.37,40.87Zm7.49-5.35c-.14-1-.21-2.42-.57-4.28-.28-1.5-.57-2.78-.85-3.78a59.27,59.27,0,0,0-12.34-.85,53.53,53.53,0,0,0-10.63,1.64,55,55,0,0,1,13.2,7.2,57,57,0,0,1,10.91,11,46.26,46.26,0,0,0,.43-6.2C84,39.66,84,37.87,83.86,35.52Zm-11-22A25.11,25.11,0,0,0,69.1,11.2,51.79,51.79,0,0,0,50.42,29.74a51.8,51.8,0,0,1,14.19-4.2,53.26,53.26,0,0,1,17.18.21A25.81,25.81,0,0,0,72.81,13.48ZM63,8.85a43,43,0,0,0-6.78-1.21,55.83,55.83,0,0,0-6.06-.36H46.28A50.32,50.32,0,0,0,43.79,18.9a53.46,53.46,0,0,0,1.42,18.19A53.21,53.21,0,0,1,67.32,10.28,30.32,30.32,0,0,0,63,8.85ZM35.09,39.16V52.71a45,45,0,0,0,8.7.21A54.38,54.38,0,0,0,54,51.35,54.06,54.06,0,0,1,35.09,39.16ZM41.86,21.9A54.23,54.23,0,0,1,44.5,7.21H29.38v2H35V36.8a54.32,54.32,0,0,0,4.71,4.42,50.1,50.1,0,0,0,6.85,4.85A53.9,53.9,0,0,1,41.86,21.9ZM0,0,0,79.59,0,0" transform="translate(0 -0.01)"/></svg>