<svg id="Livello_1" data-name="Livello 1" xmlns="http://www.w3.org/2000/svg" xmlns:xlink="http://www.w3.org/1999/xlink" viewBox="0 0 4000 2850"><defs><style>.cls-1{fill:#e6e6e6;}.cls-2{fill:url(#Sfumatura_senza_nome_190);}</style><linearGradient id="Sfumatura_senza_nome_190" x1="3203.38" y1="2628.38" x2="-115.3" y2="-690.3" gradientUnits="userSpaceOnUse"><stop offset="0" stop-color="#181830"/><stop offset="1" stop-color="#ff4848"/></linearGradient></defs><title>LOGO-2</title><rect class="cls-1" width="4000" height="2850"/><path class="cls-2" d="M3950,56.32v696.6h-71.13c-2.45-336-277.17-608.3-613.21-610.75H734.34c-336,2.45-610.76,274.72-613.21,610.75H50V56.32Zm-76,2040.76c0,336-274.71,610.75-610.75,613.2H731.89c-149.63,0-291.89-56.41-404.72-154.53-127.55-117.73-203.59-284.52-206-458.67H50v696.6H3950v-696.6Zm-2676-716.23h-51.5c-93.21-2.45-181.51-41.7-247.74-107.93-58.87-63.77-90.76-147.17-93.21-235.47V895.19H734.34V1954.81h71.13V1800.28c2.45-184,157-331.13,341-328.68h51.5v-90.75ZM3194.53,895.19v142.26c0,58.87-17.17,117.74-46.61,169.25-34.33,61.32-90.75,112.83-154.52,142.26V1501c122.64,56.41,201.13,176.6,201.13,311.51v142.26h71.13V895.19ZM1740,1918c-159.43,24.53-321.32,27-480.75,9.81v549.43H1065.47v68.68h223.21c215.85-80.94,417-201.13,588.68-355.66,132.45-122.64,247.73-262.45,338.49-417C2063.77,1842,1904.34,1891,1740,1918Zm657.36-399.81c-73.59,198.68-181.51,380.19-318.87,542.07-176.6,206-394.91,372.83-642.64,485.66h291.89c44.15-2.45,83.39-2.45,137.35-4.9a1014.52,1014.52,0,0,0,171.7-14.72c61.32-7.36,120.19-19.62,179.06-34.34,39.24-9.81,61.32-17.17,71.13-19.62,36.79-12.27,73.59-27,107.93-44.15a1730.33,1730.33,0,0,0,58.86-419.44C2458.68,1844.43,2439.06,1677.64,2397.36,1518.21ZM2677,1461.79a1834.51,1834.51,0,0,0-331.13-250.19C2515.09,1582,2554.34,1999,2461.13,2393.87c41.7-22.08,80.95-49.06,117.74-78.49C2811.89,2129,2883,1864.06,2910,1731.6A1754.37,1754.37,0,0,0,2677,1461.79Zm257.55-184c-4.91-34.34-7.36-83.4-19.62-147.17-9.82-51.51-19.63-95.66-29.44-130a2047.21,2047.21,0,0,0-424.34-29.43c-122.64,7.35-245.28,24.52-365.47,56.41,161.89,61.32,314,144.72,453.77,247.74,142.27,107.92,267.36,235.47,375.29,377.73a1560.11,1560.11,0,0,0,14.71-213.39C2939.43,1420.09,2939.43,1358.77,2934.53,1277.83ZM2554.34,519.91a847,847,0,0,0-127.55-78.49c-264.9,154.52-488.11,372.83-642.64,637.73a1777.48,1777.48,0,0,1,488.11-144.72,1839,1839,0,0,1,591.14,7.36C2804.53,772.55,2696.6,625.38,2554.34,519.91ZM2215.85,360.47c-76-19.62-154.53-34.34-233-41.7-68.68-7.35-139.81-12.26-208.49-12.26H1641.89c-44.15,130-73.59,264.91-85.85,399.81-19.62,210.94-2.46,421.89,49,625.47,73.59-198.68,184-385.09,321.33-547a1836.37,1836.37,0,0,1,439-375.28C2316.42,389.91,2267.36,372.74,2215.85,360.47ZM1256.79,1402.92v466a1521,1521,0,0,0,299.25,7.36c117.73-7.36,235.47-24.53,350.75-54C1664,1729.15,1440.75,1586.89,1256.79,1402.92Zm233-593.58c7.36-171.7,36.79-340.94,90.76-505.28h-520v68.68h193.77V1322c51.51,54,105.47,105.47,161.89,152.08,73.58,61.32,152.07,117.73,235.47,166.79C1534,1380.85,1480,1096.32,1489.81,809.34ZM50,56.32m0,2737.36M50,56.32"/></svg>