<?xml version="1.0" encoding="utf-8"?>
<!-- Generator: Adobe Illustrator 22.0.1, SVG Export Plug-In . SVG Version: 6.00 Build 0)  -->
<svg version="1.1" id="Livello_1" xmlns="http://www.w3.org/2000/svg" xmlns:xlink="http://www.w3.org/1999/xlink" x="0px" y="0px"
	 viewBox="0 0 1140 140" style="enable-background:new 0 0 1140 140;" xml:space="preserve">
<style type="text/css">
	.st0{fill:url(#SVGID_1_);}
</style>
<linearGradient id="SVGID_1_" gradientUnits="userSpaceOnUse" x1="752.2622" y1="251.1445" x2="-124.0225" y2="-625.1403">
	<stop  offset="0" style="stop-color:#181830"/>
	<stop  offset="1" style="stop-color:#FF4848"/>
</linearGradient>
<path class="st0" d="M99.7,81.2c5.5,0,10.5-0.9,15-2.7c4.5-1.8,8.3-4.3,11.4-7.6c3.1-3.3,5.6-7.2,7.3-11.7c1.7-4.6,2.6-9.7,2.6-15.4
	c0-5.1-0.8-9.9-2.3-14.4c-1.5-4.5-3.8-8.4-6.9-11.8c-3-3.4-6.8-6-11.3-8c-4.5-2-9.8-2.9-15.8-2.9H73.2v74.4H99.7z M122.4,54.5
	c-1,3.3-2.6,6.1-4.7,8.5c-2.1,2.4-4.6,4.3-7.7,5.7c-3,1.4-6.5,2-10.4,2H85V17.1h14.7c3.8,0,7.3,0.7,10.3,2c3,1.3,5.6,3.2,7.7,5.5
	c2.1,2.3,3.7,5.2,4.8,8.4c1.1,3.3,1.6,6.9,1.6,10.8C124,47.7,123.5,51.3,122.4,54.5z M182.2,68.8c-2.6-1.5-4.7-3.5-6.3-6
	c-1.6-2.5-2.7-5.3-3.4-8.5c-0.7-3.2-1-6.5-1-9.9V6.7h-11.7v37.7c0,4.8,0.6,9.5,1.7,14c1.1,4.5,2.9,8.4,5.4,11.9
	c2.5,3.5,5.8,6.2,9.9,8.3c4.1,2.1,9.1,3.1,15,3.1c5.7,0,10.6-1,14.7-2.9c4.1-2,7.4-4.6,10-8c2.6-3.4,4.5-7.3,5.7-11.8
	c1.2-4.5,1.8-9.3,1.8-14.4V6.7h-11.8v37.7c0,3.4-0.3,6.6-1,9.8c-0.7,3.2-1.8,6-3.4,8.5c-1.6,2.5-3.7,4.5-6.2,6
	c-2.6,1.5-5.8,2.3-9.7,2.3C188.1,71.1,184.8,70.3,182.2,68.8z M241.5,81.2H254l7.8-20.2h28.7l7.9,20.2h12.4L281.4,6.7h-10.3
	L241.5,81.2z M263.8,52.2l12.4-32l11.9,32H263.8z M384.2,81.2V70.8h-39.9V6.7h-11.7v74.4H384.2z M453.9,74.7V46.3h36.4v-6.2h-36.4
	V13.2h41.7V6.7h-49.1v74.4h50v-6.5H453.9z M514.2,6.7l28.6,37.7l-27.8,36.7h8.3l23.6-31.5l23.6,31.5h8.1l-27.8-36.7l28.6-37.7h-8.1
	l-24.4,32.5L522.5,6.7H514.2z M609.2,81.2V53.7h24.1c3.2,0,6.1-0.7,8.8-2c2.6-1.3,4.9-3.1,6.8-5.2c1.9-2.2,3.4-4.7,4.4-7.5
	c1-2.8,1.6-5.8,1.6-8.9c0-2.9-0.6-5.7-1.7-8.5c-1.1-2.8-2.7-5.3-4.6-7.5c-2-2.2-4.3-4-7-5.3c-2.7-1.4-5.6-2-8.9-2h-30.8v74.4H609.2z
	 M609.2,13.2h23.2c2,0,4,0.4,5.8,1.3c1.9,0.9,3.5,2.1,4.8,3.6c1.4,1.5,2.4,3.3,3.3,5.4c0.8,2.1,1.2,4.2,1.2,6.6c0,2.2-0.3,4.4-1,6.4
	c-0.7,2.1-1.7,3.9-2.9,5.5c-1.3,1.6-2.8,2.8-4.6,3.8c-1.8,0.9-3.8,1.4-5.9,1.4h-23.8V13.2z M723.5,78.6c4.3-2.1,8-4.8,11.1-8.3
	c3.1-3.5,5.6-7.5,7.3-12c1.8-4.5,2.7-9.3,2.7-14.3c0-4.7-0.8-9.3-2.5-13.8c-1.7-4.5-4-8.5-7.1-12.1c-3-3.6-6.7-6.5-11-8.7
	c-4.3-2.2-9-3.3-14.2-3.3c-5,0-9.6,1-13.8,3.1c-4.3,2.1-8,4.8-11.1,8.3c-3.1,3.5-5.6,7.5-7.4,12.1c-1.8,4.5-2.7,9.3-2.7,14.3
	c0,4.8,0.8,9.4,2.5,13.9c1.7,4.5,4.1,8.6,7.1,12.1c3.1,3.5,6.8,6.4,11.1,8.5c4.3,2.1,9,3.2,14.2,3.2
	C714.6,81.7,719.2,80.7,723.5,78.6z M684,32.6c1.3-3.7,3.1-7,5.5-10c2.4-2.9,5.3-5.3,8.7-7.1c3.4-1.8,7.2-2.7,11.4-2.7
	c4.1,0,7.8,0.9,11.1,2.6c3.4,1.7,6.3,4,8.7,6.9c2.4,2.9,4.4,6.2,5.7,9.9c1.4,3.7,2,7.6,2,11.7c0,3.8-0.6,7.6-1.9,11.3
	c-1.3,3.7-3.1,7-5.5,10c-2.4,2.9-5.3,5.3-8.7,7.1c-3.4,1.8-7.2,2.7-11.4,2.7c-4.1,0-7.9-0.9-11.2-2.6c-3.4-1.7-6.3-4-8.7-6.9
	c-2.4-2.9-4.3-6.2-5.7-10c-1.3-3.7-2-7.6-2-11.7C682.1,40.1,682.7,36.3,684,32.6z M818.1,14.8c-3.1-2.7-6.7-4.8-10.5-6.3
	c-3.9-1.5-8.3-2.3-13.3-2.3c-3.9,0-7.5,0.5-10.7,1.4c-3.2,0.9-6,2.3-8.4,4.1c-2.4,1.8-4.2,4-5.5,6.7c-1.3,2.7-1.9,5.8-1.9,9.2
	c0,3,0.5,5.5,1.5,7.6c1,2.1,2.5,3.8,4.6,5.3c2,1.5,4.5,2.7,7.4,3.7c2.9,1,6.4,1.9,10.3,2.8c3.7,0.8,7,1.7,9.8,2.5
	c2.8,0.8,5.1,1.8,7,3c1.9,1.2,3.3,2.5,4.2,4.1c0.9,1.6,1.4,3.5,1.4,5.8c0,4.3-1.7,7.6-5,9.7c-3.3,2.1-8,3.2-13.9,3.2
	c-2.9,0-5.6-0.3-8.2-0.8c-2.6-0.5-5-1.3-7.3-2.2c-2.3-0.9-4.3-2-6.2-3.3c-1.9-1.3-3.4-2.6-4.8-4l-3.7,6c8.4,7.2,18.4,10.8,29.9,10.8
	c3.9,0,7.5-0.4,10.8-1.2c3.3-0.8,6.1-2,8.5-3.7c2.4-1.7,4.2-3.8,5.6-6.3c1.3-2.5,2-5.5,2-8.9c0-3.4-0.6-6.1-1.8-8.4
	c-1.2-2.2-2.9-4.1-5.1-5.7c-2.2-1.6-4.9-2.9-8.1-3.9c-3.2-1-6.8-2-10.8-2.8c-3.6-0.8-6.7-1.5-9.3-2.3c-2.6-0.8-4.8-1.7-6.5-2.7
	c-1.7-1-2.9-2.3-3.7-3.7c-0.8-1.4-1.2-3.3-1.2-5.5c0-4.3,1.5-7.6,4.5-10.1s7.8-3.7,14.4-3.7c4.5,0,8.5,0.7,12,2.2s6.3,3.4,8.4,5.8
	L818.1,14.8z M865.9,72.5c-3.1-1.7-5.5-4.1-7.4-6.9c-1.9-2.9-3.2-6.2-3.9-9.9c-0.8-3.7-1.2-7.5-1.2-11.4V6.7h-7.2v37.5
	c0,4.8,0.5,9.4,1.6,13.8c1,4.5,2.8,8.5,5.2,11.9c2.4,3.5,5.7,6.3,9.7,8.4c4,2.1,9,3.2,14.8,3.2c5.7,0,10.6-1,14.6-3
	c4-2,7.2-4.8,9.7-8.2c2.5-3.4,4.3-7.4,5.4-11.9s1.7-9.3,1.7-14.3V6.7h-7.3v37.5c0,3.8-0.4,7.5-1.1,11.2c-0.7,3.7-2,7-3.9,9.9
	c-1.9,2.9-4.3,5.2-7.4,7c-3.1,1.8-7,2.7-11.7,2.7C872.8,75.1,868.9,74.2,865.9,72.5z M946.3,81.2V53.7h22l17.5,27.5h8.3l-18.2-28.7
	c2.5-0.5,4.8-1.4,6.8-2.8c2-1.4,3.8-3,5.2-5c1.4-2,2.6-4.2,3.4-6.7c0.8-2.5,1.2-5.1,1.2-7.8c0-2.9-0.5-5.7-1.6-8.5
	c-1.1-2.8-2.6-5.3-4.6-7.5c-2-2.2-4.3-4-7-5.3c-2.7-1.4-5.6-2-8.9-2H939v74.4H946.3z M946.3,13.2H970c2,0,4,0.5,5.8,1.4
	c1.9,0.9,3.5,2.1,4.8,3.7s2.4,3.3,3.3,5.4s1.2,4.2,1.2,6.5s-0.3,4.4-1,6.4c-0.7,2-1.7,3.8-2.9,5.5c-1.3,1.6-2.8,2.9-4.6,3.8
	c-1.8,0.9-3.8,1.4-5.9,1.4h-24.3V13.2z M1027.3,74.7V46.3h36.4v-6.2h-36.4V13.2h41.7V6.7H1020v74.4h50v-6.5H1027.3z M87.4,111.5
	c-1-1-2.2-1.7-3.4-2.2c-1.3-0.5-2.7-0.7-4.3-0.7c-1.3,0-2.5,0.2-3.6,0.5c-1.1,0.3-2,0.8-2.8,1.3c-0.8,0.6-1.4,1.3-1.8,2.2
	s-0.6,1.9-0.6,3c0,1,0.2,1.9,0.5,2.6c0.3,0.7,0.9,1.3,1.6,1.7c0.7,0.5,1.5,0.9,2.6,1.2c1,0.3,2.2,0.6,3.5,0.9
	c1.3,0.3,2.4,0.6,3.4,0.9c1,0.3,1.8,0.7,2.4,1.1c0.6,0.4,1.1,0.9,1.5,1.5c0.3,0.6,0.5,1.3,0.5,2.1c0,1.6-0.6,2.8-1.8,3.6
	c-1.2,0.8-2.9,1.2-5.1,1.2c-1.9,0-3.6-0.3-5.1-1c-1.5-0.6-2.8-1.5-3.8-2.6l-0.9,1.4c2.7,2.5,6,3.7,9.8,3.7c1.3,0,2.5-0.1,3.6-0.4
	c1.1-0.3,2-0.7,2.8-1.2c0.8-0.5,1.4-1.2,1.8-2c0.4-0.8,0.6-1.8,0.6-2.9c0-1.1-0.2-2-0.6-2.8s-1-1.4-1.7-1.9
	c-0.8-0.5-1.7-0.9-2.8-1.3c-1.1-0.3-2.3-0.6-3.6-0.9c-1.3-0.3-2.4-0.5-3.3-0.8c-0.9-0.3-1.7-0.6-2.3-0.9c-0.6-0.4-1-0.8-1.3-1.3
	c-0.3-0.5-0.4-1.2-0.4-2c0-1.6,0.6-2.8,1.7-3.7c1.1-0.9,2.9-1.4,5.3-1.4c2.9,0,5.2,0.9,6.8,2.7L87.4,111.5z M285.1,108.8h-20v1.6
	h9.1v23.2h1.8v-23.2h9.1V108.8z M469.5,131.2c-1.1-0.6-2-1.4-2.6-2.4c-0.7-1-1.1-2.2-1.4-3.5c-0.3-1.3-0.4-2.6-0.4-4v-12.5h-1.8
	v12.5c0,1.6,0.2,3.1,0.5,4.6c0.3,1.5,0.9,2.8,1.7,4s1.9,2.1,3.2,2.8c1.3,0.7,3,1.1,5,1.1c1.9,0,3.5-0.3,4.8-1s2.4-1.6,3.2-2.7
	s1.4-2.5,1.8-4c0.4-1.5,0.5-3.1,0.5-4.8v-12.5h-1.8v12.5c0,1.3-0.1,2.6-0.4,4c-0.3,1.3-0.7,2.5-1.4,3.5c-0.6,1-1.5,1.9-2.6,2.5
	c-1.1,0.6-2.5,0.9-4.2,0.9C472,132.1,470.6,131.8,469.5,131.2z M673.1,133.6c1.8,0,3.4-0.3,4.9-0.9c1.5-0.6,2.7-1.4,3.7-2.5
	c1-1.1,1.8-2.4,2.4-3.9c0.5-1.5,0.8-3.2,0.8-5.1c0-1.7-0.2-3.3-0.7-4.8c-0.5-1.5-1.2-2.8-2.2-3.9c-1-1.1-2.2-2-3.7-2.7
	c-1.5-0.7-3.2-1-5.2-1h-8.3v24.8H673.1z M682.4,125.4c-0.4,1.3-1.1,2.5-1.9,3.4c-0.8,1-1.9,1.7-3.1,2.3c-1.2,0.6-2.7,0.8-4.3,0.8
	h-6.5v-21.6h6.5c1.6,0,3,0.3,4.3,0.8c1.2,0.5,2.3,1.3,3.1,2.2c0.9,1,1.5,2.1,1.9,3.4c0.4,1.3,0.7,2.8,0.7,4.3
	C683.1,122.7,682.9,124.1,682.4,125.4z M866.3,133.6v-24.8h-1.8v24.8H866.3z M1062,132.7c1.4-0.7,2.6-1.6,3.7-2.8
	c1-1.2,1.9-2.5,2.4-4c0.6-1.5,0.9-3.1,0.9-4.8c0-1.5-0.3-3.1-0.8-4.6c-0.6-1.5-1.3-2.8-2.4-4c-1-1.2-2.2-2.2-3.7-2.9s-3-1.1-4.7-1.1
	c-1.7,0-3.2,0.3-4.6,1c-1.4,0.7-2.7,1.6-3.7,2.8c-1,1.2-1.9,2.5-2.4,4c-0.6,1.5-0.9,3.1-0.9,4.8c0,1.6,0.3,3.1,0.8,4.7
	c0.6,1.5,1.3,2.8,2.4,4c1,1.2,2.3,2.1,3.7,2.8c1.4,0.7,3,1.1,4.7,1.1C1059.1,133.8,1060.6,133.4,1062,132.7z M1048.3,117.2
	c0.5-1.3,1.1-2.5,2-3.5c0.9-1,1.9-1.9,3.1-2.5c1.2-0.6,2.6-0.9,4.1-0.9c1.4,0,2.7,0.3,3.9,0.9c1.2,0.6,2.2,1.4,3.1,2.4
	c0.9,1,1.6,2.2,2,3.5c0.5,1.3,0.7,2.7,0.7,4.1c0,1.3-0.2,2.7-0.7,4c-0.5,1.3-1.1,2.5-2,3.5c-0.9,1-1.9,1.9-3.1,2.5
	c-1.2,0.6-2.5,0.9-4,0.9c-1.4,0-2.8-0.3-4-0.9c-1.2-0.6-2.3-1.4-3.1-2.4c-0.9-1-1.6-2.2-2-3.5c-0.5-1.3-0.7-2.7-0.7-4.1
	C1047.6,119.8,1047.8,118.5,1048.3,117.2z"/>
</svg>
