<svg id="Livello_1" data-name="Livello 1" xmlns="http://www.w3.org/2000/svg" xmlns:xlink="http://www.w3.org/1999/xlink" viewBox="0 0 114.34 14.6"><defs><style>.cls-1{fill:url(#Sfumatura_senza_nome_190);}</style><linearGradient id="Sfumatura_senza_nome_190" x1="82.59" y1="32.61" x2="-44.26" y2="-94.24" gradientUnits="userSpaceOnUse"><stop offset="0" stop-color="#181830"/><stop offset="1" stop-color="#ff4848"/></linearGradient></defs><title>Scritta</title><path class="cls-1" d="M3.21,8.58a4.47,4.47,0,0,0,1.72-.31A3.62,3.62,0,0,0,7.07,6.06a4.89,4.89,0,0,0,.3-1.76A4.91,4.91,0,0,0,7.1,2.66,3.9,3.9,0,0,0,6.32,1.3,3.85,3.85,0,0,0,5,.39,4.6,4.6,0,0,0,3.21.06h-3V8.58Zm2.61-3a2.75,2.75,0,0,1-.54,1,2.49,2.49,0,0,1-.87.65,3,3,0,0,1-1.2.23H1.53V1.25H3.21a2.92,2.92,0,0,1,1.18.22,2.54,2.54,0,0,1,.88.63,2.62,2.62,0,0,1,.54,1A3.78,3.78,0,0,1,6,4.3,4,4,0,0,1,5.82,5.53Zm6.84,1.64a2,2,0,0,1-.72-.69,3,3,0,0,1-.38-1,5.22,5.22,0,0,1-.11-1.13V.06H10.1V4.38A6.92,6.92,0,0,0,10.29,6a3.78,3.78,0,0,0,.63,1.36,3,3,0,0,0,1.13.95,3.74,3.74,0,0,0,1.72.36,3.8,3.8,0,0,0,1.69-.34,3.07,3.07,0,0,0,1.15-.92A3.75,3.75,0,0,0,17.25,6a6.32,6.32,0,0,0,.21-1.65V.06H16.1V4.38A6,6,0,0,1,16,5.5a3,3,0,0,1-.39,1,2,2,0,0,1-.71.69,2.14,2.14,0,0,1-1.12.26A2.22,2.22,0,0,1,12.66,7.17Zm6.79,1.41h1.43l.89-2.32h3.28L26,8.58h1.42L24,.06H22.83ZM22,5.27l1.41-3.66,1.37,3.66ZM35.78,8.58V7.39H31.21V.06H29.87V8.58Zm8-.75V4.58h4.17V3.87H43.76V.8h4.78V.06H42.92V8.58h5.73V7.83ZM50.66.06l3.28,4.32-3.18,4.2h1L54.41,5l2.7,3.6H58l-3.18-4.2L58.13.06H57.2L54.41,3.78,51.61.06ZM61.53,8.58V5.43h2.76a2.12,2.12,0,0,0,1-.23,2.63,2.63,0,0,0,.77-.59,2.73,2.73,0,0,0,.5-.86,3,3,0,0,0,.18-1,2.58,2.58,0,0,0-.19-1A2.94,2.94,0,0,0,66,.9a2.79,2.79,0,0,0-.79-.61,2.18,2.18,0,0,0-1-.23H60.69V8.58Zm0-7.78h2.66a1.52,1.52,0,0,1,.66.15,1.62,1.62,0,0,1,.55.42,2.1,2.1,0,0,1,.38.61,2.11,2.11,0,0,1,.13.75,2.25,2.25,0,0,1-.12.74,2,2,0,0,1-.33.62,1.67,1.67,0,0,1-.52.44,1.55,1.55,0,0,1-.68.16H61.53ZM74.61,8.28a4,4,0,0,0,1.27-.95A4.25,4.25,0,0,0,76.72,6,4.5,4.5,0,0,0,77,4.33a4.55,4.55,0,0,0-.29-1.58,4.44,4.44,0,0,0-.81-1.38,4.26,4.26,0,0,0-1.26-1A3.55,3.55,0,0,0,73,0a3.65,3.65,0,0,0-1.58.35,4.27,4.27,0,0,0-1.27,1,4.37,4.37,0,0,0-.85,1.39A4.46,4.46,0,0,0,69,4.32a4.61,4.61,0,0,0,.29,1.59,4.4,4.4,0,0,0,.82,1.39,4,4,0,0,0,1.26,1A3.58,3.58,0,0,0,73,8.64,3.49,3.49,0,0,0,74.61,8.28ZM70.1,3a3.54,3.54,0,0,1,.63-1.14,3.12,3.12,0,0,1,1-.81A2.84,2.84,0,0,1,73,.77a2.7,2.7,0,0,1,1.27.29,3.18,3.18,0,0,1,1,.78A3.56,3.56,0,0,1,76,3a3.8,3.8,0,0,1,0,2.63,3.34,3.34,0,0,1-.63,1.14,3.15,3.15,0,0,1-1,.82A2.72,2.72,0,0,1,73,7.88a2.83,2.83,0,0,1-1.28-.29,3.1,3.1,0,0,1-1-.8,3.62,3.62,0,0,1-.65-1.13,4.06,4.06,0,0,1-.23-1.34A3.92,3.92,0,0,1,70.1,3ZM85.44,1a3.91,3.91,0,0,0-2.73-1,4.29,4.29,0,0,0-1.22.16,2.87,2.87,0,0,0-1,.47,2.06,2.06,0,0,0-.63.77,2.32,2.32,0,0,0-.22,1.05,2.08,2.08,0,0,0,.17.87,1.74,1.74,0,0,0,.52.6,3.13,3.13,0,0,0,.86.42,11.82,11.82,0,0,0,1.17.32c.43.1.8.2,1.12.29a3.56,3.56,0,0,1,.8.34,1.48,1.48,0,0,1,.49.47,1.26,1.26,0,0,1,.16.67,1.24,1.24,0,0,1-.57,1.11,3,3,0,0,1-1.59.37,5.66,5.66,0,0,1-.94-.09A5.36,5.36,0,0,1,81,7.56a4.3,4.3,0,0,1-.71-.37,3.61,3.61,0,0,1-.54-.46l-.42.68a5.05,5.05,0,0,0,3.42,1.24A5.26,5.26,0,0,0,84,8.51a2.61,2.61,0,0,0,1-.43,2,2,0,0,0,.64-.71,2.21,2.21,0,0,0,.23-1,2,2,0,0,0-.21-1,1.88,1.88,0,0,0-.58-.65,3.66,3.66,0,0,0-.93-.45A10.94,10.94,0,0,0,82.91,4c-.41-.09-.77-.18-1.07-.27a2.62,2.62,0,0,1-.73-.31A1.11,1.11,0,0,1,80.68,3a1.26,1.26,0,0,1-.14-.62,1.4,1.4,0,0,1,.52-1.16A2.52,2.52,0,0,1,82.7.74,3.68,3.68,0,0,1,84.07,1a2.64,2.64,0,0,1,1,.66Zm5.47,6.6a2.48,2.48,0,0,1-.85-.79,3.43,3.43,0,0,1-.45-1.13,7,7,0,0,1-.13-1.31V.06h-.83V4.35a7,7,0,0,0,.18,1.59,3.82,3.82,0,0,0,.6,1.36,3.08,3.08,0,0,0,1.11,1,3.53,3.53,0,0,0,1.7.37,3.68,3.68,0,0,0,1.67-.35A2.91,2.91,0,0,0,95,7.35,3.94,3.94,0,0,0,95.64,6a6.64,6.64,0,0,0,.19-1.64V.06H95V4.35a6.21,6.21,0,0,1-.13,1.29,3.21,3.21,0,0,1-.44,1.13,2.54,2.54,0,0,1-.85.81,2.71,2.71,0,0,1-1.34.3A2.63,2.63,0,0,1,90.91,7.58Zm9.2,1V5.43h2.52l2,3.15h1L103.5,5.29a2.08,2.08,0,0,0,.78-.32,2.28,2.28,0,0,0,.59-.57,2.94,2.94,0,0,0,.39-.77,3,3,0,0,0,.13-.9,2.77,2.77,0,0,0-.18-1,3.14,3.14,0,0,0-.52-.86,2.83,2.83,0,0,0-.8-.61,2.18,2.18,0,0,0-1-.23h-3.6V8.58Zm0-7.78h2.72a1.4,1.4,0,0,1,.66.16,1.62,1.62,0,0,1,.55.42,2,2,0,0,1,.51,1.35,2.19,2.19,0,0,1-.12.73,2.1,2.1,0,0,1-.33.63,1.82,1.82,0,0,1-.52.44,1.55,1.55,0,0,1-.68.16h-2.79Zm9.28,7V4.58h4.16V3.87h-4.16V.8h4.77V.06h-5.61V8.58h5.72V7.83ZM2,12.05a1,1,0,0,0-.39-.25,1.26,1.26,0,0,0-.49-.08,1.36,1.36,0,0,0-.41,0,.9.9,0,0,0-.31.15.72.72,0,0,0-.21.25.74.74,0,0,0-.07.34.6.6,0,0,0,.06.29.55.55,0,0,0,.17.2,1,1,0,0,0,.3.14l.4.1.39.1.28.12a.51.51,0,0,1,.16.17.52.52,0,0,1-.15.66,1.06,1.06,0,0,1-.58.13,1.59,1.59,0,0,1-.59-.11A1.23,1.23,0,0,1,.12,14l-.1.17a1.59,1.59,0,0,0,1.12.42,1.7,1.7,0,0,0,.41,0,.86.86,0,0,0,.32-.14.66.66,0,0,0,.21-.23.73.73,0,0,0,.08-.33.76.76,0,0,0-.07-.32.8.8,0,0,0-.2-.21,1.35,1.35,0,0,0-.32-.15,3.52,3.52,0,0,0-.41-.1L.78,13a1.28,1.28,0,0,1-.26-.1.45.45,0,0,1-.15-.16.48.48,0,0,1,0-.22.54.54,0,0,1,.19-.43.93.93,0,0,1,.61-.16,1,1,0,0,1,.78.31Zm22.63-.31H22.35v.18h1v2.66h.2V11.92h1ZM45.74,14.3a.81.81,0,0,1-.3-.28,1,1,0,0,1-.16-.4,2.24,2.24,0,0,1-.05-.46V11.74H45v1.42a2.26,2.26,0,0,0,.06.53,1.35,1.35,0,0,0,.19.46,1.07,1.07,0,0,0,.37.33,1.2,1.2,0,0,0,.57.12,1.15,1.15,0,0,0,.55-.12,1,1,0,0,0,.36-.31,1.19,1.19,0,0,0,.2-.46,2,2,0,0,0,.07-.55V11.74h-.21v1.42a2.32,2.32,0,0,1,0,.46A1.29,1.29,0,0,1,47,14a.81.81,0,0,1-.3.28,1,1,0,0,1-.48.11A1,1,0,0,1,45.74,14.3Zm23.3.28a1.64,1.64,0,0,0,.56-.1,1.17,1.17,0,0,0,.42-.29,1.29,1.29,0,0,0,.27-.45,1.59,1.59,0,0,0,.1-.59,1.71,1.71,0,0,0-.09-.55,1.24,1.24,0,0,0-.25-.45,1.19,1.19,0,0,0-.42-.3,1.38,1.38,0,0,0-.59-.11H68.1v2.84Zm1.07-.94a1.2,1.2,0,0,1-.22.4.88.88,0,0,1-.36.26,1.22,1.22,0,0,1-.49.09H68.3V11.92H69a1.26,1.26,0,0,1,.49.09,1,1,0,0,1,.36.26,1.24,1.24,0,0,1,.22.39,1.75,1.75,0,0,1,0,1Zm21,.94V11.74H91v2.84Zm22.41-.1a1.46,1.46,0,0,0,.42-.32,1.42,1.42,0,0,0,.28-.46,1.4,1.4,0,0,0,.1-.54,1.64,1.64,0,0,0-.09-.53,1.67,1.67,0,0,0-.28-.46,1.4,1.4,0,0,0-.42-.33,1.19,1.19,0,0,0-.54-.12,1.27,1.27,0,0,0-.52.11,1.38,1.38,0,0,0-.43.32,1.67,1.67,0,0,0-.28.46,1.72,1.72,0,0,0-.1.55,1.39,1.39,0,0,0,.1.53,1.33,1.33,0,0,0,.27.46,1.46,1.46,0,0,0,.42.32,1.08,1.08,0,0,0,.54.13A1.21,1.21,0,0,0,113.56,14.48ZM112,12.7a1.2,1.2,0,0,1,.22-.4,1.12,1.12,0,0,1,.36-.29,1,1,0,0,1,.46-.1.93.93,0,0,1,.45.1,1,1,0,0,1,.35.28,1.15,1.15,0,0,1,.24.4,1.45,1.45,0,0,1,.08.47,1.19,1.19,0,0,1-.08.45,1.47,1.47,0,0,1-.22.41,1.25,1.25,0,0,1-.36.28,1,1,0,0,1-.46.11,1,1,0,0,1-.45-.11,1.07,1.07,0,0,1-.36-.27,1.23,1.23,0,0,1-.23-.4,1.26,1.26,0,0,1-.08-.47A1.21,1.21,0,0,1,112,12.7Z" transform="translate(-0.02 0)"/></svg>