<svg id="Livello_1" data-name="Livello 1" xmlns="http://www.w3.org/2000/svg" viewBox="0 0 2000 2000"><defs><style>.cls-1{fill:#fafafa;}</style></defs><title>BOTTONE-3</title><path class="cls-1" d="M1216.17,978.14a11.85,11.85,0,0,0-3.89-2.95,11.08,11.08,0,0,0-4.71-1h-19.09v28h19.66a10.34,10.34,0,0,0,4.8-1.09,10.9,10.9,0,0,0,3.66-3,15,15,0,0,0,2.37-4.51,17,17,0,0,0,.86-5.42,15,15,0,0,0-1-5.51A14.8,14.8,0,0,0,1216.17,978.14Z"/><polygon class="cls-1" points="1112.95 1007.59 1137.65 1007.59 1125.49 976.43 1112.95 1007.59"/><path class="cls-1" d="M910,981.46a21.8,21.8,0,0,0-7.55-5.36,25.2,25.2,0,0,0-10.17-2H877.45v52.25h14.82a25.29,25.29,0,0,0,10.31-2,20.51,20.51,0,0,0,7.5-5.51,24.08,24.08,0,0,0,4.56-8.31,33.14,33.14,0,0,0,1.57-10.4,33.51,33.51,0,0,0-1.57-10.5A22.41,22.41,0,0,0,910,981.46Z"/><polygon class="cls-1" points="714.53 1007.59 739.23 1007.59 727.07 976.43 714.53 1007.59"/><path class="cls-1" d="M1456.79,543.21a643.91,643.91,0,1,0,138.45,205.34A643.86,643.86,0,0,0,1456.79,543.21ZM679.38,1034H633.21V966.55h8.55v59.85h37.62Zm69.73,0-8-19.76H712.82L704.93,1034h-9.12l27.65-67.45h7.22L758.23,1034Zm89.39,0h-7.22l-41.23-51.49V1034H781.5V966.55h6.65l41.8,52.53V966.64h8.55Zm84.08-19.9a30,30,0,0,1-6.56,10.64,29.44,29.44,0,0,1-10.31,6.84,35.86,35.86,0,0,1-13.44,2.42H868.9V966.55h23.37a35.44,35.44,0,0,1,14.2,2.66,29,29,0,0,1,10.22,7.22,30,30,0,0,1,6.12,10.69,40.79,40.79,0,0,1,2.05,13.06A40.24,40.24,0,0,1,922.58,1014.1Zm73.34,10.16a16.88,16.88,0,0,1-5.18,5.89,22.58,22.58,0,0,1-7.74,3.42,40.67,40.67,0,0,1-9.69,1.09,44.66,44.66,0,0,1-14.78-2.42,41.1,41.1,0,0,1-12.68-7.08l4.09-7.22a21.91,21.91,0,0,0,3.94,3.23,31.32,31.32,0,0,0,5.51,2.9,40.42,40.42,0,0,0,6.65,2.09,33.51,33.51,0,0,0,7.46.81q7.21,0,11.21-2.57a9.46,9.46,0,0,0,2.7-12.49,10.78,10.78,0,0,0-3.75-3.37,29,29,0,0,0-6.13-2.52q-3.66-1.1-8.31-2.23a81.77,81.77,0,0,1-9-2.66,24.53,24.53,0,0,1-6.51-3.42,12.87,12.87,0,0,1-3.94-4.85,16,16,0,0,1-1.33-6.84,19.34,19.34,0,0,1,1.8-8.55,17.85,17.85,0,0,1,5-6.27,21.79,21.79,0,0,1,7.69-3.84,34.88,34.88,0,0,1,31.83,6.41l-4,6.93a14.32,14.32,0,0,0-3-2.56,27.26,27.26,0,0,0-4.28-2.23,29.38,29.38,0,0,0-5.18-1.62,27.15,27.15,0,0,0-5.84-.62q-7.89,0-11.54,3a9.79,9.79,0,0,0-3.66,8.07,9,9,0,0,0,1,4.56,8.45,8.45,0,0,0,3.27,3.09,24.61,24.61,0,0,0,5.56,2.23c2.22.64,4.85,1.3,7.89,2a82.53,82.53,0,0,1,9.45,2.61,27.43,27.43,0,0,1,7.22,3.66,14.77,14.77,0,0,1,4.56,5.32,17.13,17.13,0,0,1,1.57,7.69A17.69,17.69,0,0,1,995.92,1024.26Zm76.9,1.33a28.76,28.76,0,0,1-6.56,4.89,33.15,33.15,0,0,1-7.74,3,32,32,0,0,1-8,1,26.94,26.94,0,0,1-12.73-3,34.11,34.11,0,0,1-10-7.93,36.34,36.34,0,0,1-6.56-11.12,35.65,35.65,0,0,1-.19-24.79,33.79,33.79,0,0,1,6.27-10.83,31.73,31.73,0,0,1,10.12-7.75,30.42,30.42,0,0,1,13.59-2.94,28.41,28.41,0,0,1,15.48,4.08,25.41,25.41,0,0,1,9.59,10.64l-6.74,4.37a19.47,19.47,0,0,0-3.66-5.41,18.84,18.84,0,0,0-4.65-3.52,20.37,20.37,0,0,0-5.18-1.9,24.91,24.91,0,0,0-5.23-.57,20.62,20.62,0,0,0-9.92,2.33,23,23,0,0,0-7.27,6.08,26.29,26.29,0,0,0-4.42,8.46,31.47,31.47,0,0,0-1.47,9.45,29,29,0,0,0,1.76,10.12,27.93,27.93,0,0,0,4.89,8.5,23.87,23.87,0,0,0,7.41,5.89,20.1,20.1,0,0,0,9.31,2.18,23.8,23.8,0,0,0,5.46-.66,20,20,0,0,0,5.37-2.14,23.18,23.18,0,0,0,4.8-3.7,18.28,18.28,0,0,0,3.66-5.37l7.12,3.89A21,21,0,0,1,1072.82,1025.59Zm74.72,8.41-8-19.76h-28.3l-7.89,19.76h-9.12l27.64-67.45h7.23l27.55,67.45Zm79.51-37.81a22.19,22.19,0,0,1-4,6.93,19.51,19.51,0,0,1-6.27,4.85,18.16,18.16,0,0,1-8.12,1.8h-20.14V1034h-8.55V966.55h28.12a18.43,18.43,0,0,1,8.22,1.85,20.79,20.79,0,0,1,6.46,4.94,23.57,23.57,0,0,1,4.22,6.94,21,21,0,0,1,1.52,7.83A23.34,23.34,0,0,1,1227.05,996.19Zm72.1,37.81h-45.79V966.55h44.94v7.6h-36.39V996h31.64v7.12h-31.64v23.28h37.24Zm70.68-9.74a16.78,16.78,0,0,1-5.18,5.89,22.41,22.41,0,0,1-7.74,3.42,40.67,40.67,0,0,1-9.69,1.09,44.6,44.6,0,0,1-14.77-2.42,41,41,0,0,1-12.68-7.08l4.08-7.22a22.26,22.26,0,0,0,3.94,3.23,32,32,0,0,0,5.51,2.9,40.73,40.73,0,0,0,6.65,2.09,33.58,33.58,0,0,0,7.46.81q7.21,0,11.21-2.57a9.49,9.49,0,0,0,2.71-12.49,11,11,0,0,0-3.75-3.37,29,29,0,0,0-6.13-2.52q-3.66-1.1-8.31-2.23a82.65,82.65,0,0,1-9-2.66,24.69,24.69,0,0,1-6.51-3.42,13,13,0,0,1-3.94-4.85,16,16,0,0,1-1.33-6.84,19.2,19.2,0,0,1,1.81-8.55,17.93,17.93,0,0,1,5-6.27,21.84,21.84,0,0,1,7.7-3.84,34.84,34.84,0,0,1,31.82,6.41l-4,6.93a14.07,14.07,0,0,0-3-2.56,27.14,27.14,0,0,0-4.27-2.23,29.64,29.64,0,0,0-5.18-1.62,27.22,27.22,0,0,0-5.84-.62q-7.89,0-11.55,3a9.81,9.81,0,0,0-3.65,8.07,9,9,0,0,0,1,4.56,8.55,8.55,0,0,0,3.28,3.09,24.61,24.61,0,0,0,5.56,2.23c2.21.64,4.84,1.3,7.88,2a82,82,0,0,1,9.45,2.61,27.27,27.27,0,0,1,7.22,3.66,14.58,14.58,0,0,1,4.56,5.32,17,17,0,0,1,1.57,7.69A17.58,17.58,0,0,1,1369.83,1024.26Z"/><path class="cls-1" d="M0,0V2000H2000V0ZM1602.6,1254.57A656.11,656.11,0,1,1,1654,1000,651.79,651.79,0,0,1,1602.6,1254.57Z"/></svg>