<?xml version="1.0" encoding="utf-8"?>
<!-- Generator: Adobe Illustrator 22.0.1, SVG Export Plug-In . SVG Version: 6.00 Build 0)  -->
<svg version="1.1" id="Livello_1" xmlns="http://www.w3.org/2000/svg" xmlns:xlink="http://www.w3.org/1999/xlink" x="0px" y="0px"
	 viewBox="0 0 2000 2000" style="enable-background:new 0 0 2000 2000;" xml:space="preserve">
<style type="text/css">
	.st0{fill:#E6E6E6;}
</style>
<g>
	<polygon class="st0" points="1177.6,1016 1241.2,1016 1209.5,941.8 	"/>
	<path class="st0" d="M870.2,956.8c-4.9-5.4-10.9-9.7-18-12.7c-7.1-3-15.2-4.6-24.3-4.6h-37.4v122.7H828c9.4,0,17.6-1.5,24.7-4.7
		c7.1-3.1,13-7.4,17.9-12.9c4.8-5.5,8.4-12,10.8-19.6c2.4-7.5,3.6-15.7,3.6-24.4c0-8.9-1.2-17-3.7-24.5
		C878.8,968.7,875.1,962.2,870.2,956.8z"/>
	<polygon class="st0" points="522.2,1016 585.9,1016 554.2,941.8 	"/>
	<path class="st0" d="M1369.6,950.2c-2.9-3.2-6.3-5.8-10.2-7.8c-3.9-2-8-2.9-12.4-2.9h-48.5v70.7h49.6c4.8,0,9.1-1,12.9-3
		c3.8-2,7-4.7,9.7-8.1c2.7-3.4,4.7-7.2,6.2-11.4c1.5-4.2,2.2-8.6,2.2-13c0-4.6-0.9-9-2.6-13.2
		C1374.9,957.2,1372.6,953.4,1369.6,950.2z"/>
	<path class="st0" d="M0,0v2000h2000V0H0z M1602.1,1254.4c-32.9,77.8-80,147.7-140,207.7c-60,60-129.9,107.1-207.7,140
		c-80.6,34.1-166.2,51.4-254.4,51.4c-88.2,0-173.8-17.3-254.4-51.4c-77.8-32.9-147.7-80-207.7-140c-60-60-107.1-129.9-140-207.7
		c-34.1-80.6-51.4-166.2-51.4-254.4c0-88.2,17.3-173.8,51.4-254.4c32.9-77.8,80-147.7,140-207.7s129.9-107.1,207.7-140
		c80.6-34.1,166.2-51.4,254.4-51.4c88.2,0,173.8,17.3,254.4,51.4c77.8,32.9,147.7,80,207.7,140c60,60,107.1,129.9,140,207.7
		c34.1,80.6,51.4,166.2,51.4,254.4C1653.5,1088.2,1636.2,1173.8,1602.1,1254.4z"/>
	<path class="st0" d="M1457.1,542.9c-59.4-59.4-128.5-106-205.5-138.6c-79.7-33.7-164.4-50.8-251.6-50.8s-171.9,17.1-251.6,50.8
		c-77,32.6-146.1,79.2-205.5,138.6s-106,128.5-138.6,205.5c-33.7,79.7-50.8,164.4-50.8,251.6s17.1,171.9,50.8,251.6
		c32.6,77,79.2,146.1,138.6,205.5s128.5,106,205.5,138.6c79.7,33.7,164.4,50.8,251.6,50.8s171.9-17.1,251.6-50.8
		c77-32.6,146.1-79.2,205.5-138.6c59.4-59.4,106-128.5,138.6-205.5c33.7-79.7,50.8-164.4,50.8-251.6s-17.1-171.9-50.8-251.6
		C1563.1,671.4,1516.5,602.2,1457.1,542.9z M487.5,1068.3h-89.3V933.4h6.6v128.8h82.6V1068.3z M607.9,1068.3l-19.9-46.5h-67.6
		l-20,46.5h-7.2l58.1-134.9h5.7l58,134.9H607.9z M747.4,1068.3h-6.5l-97.7-122.4v122.4h-6.6V933.4h4.9l99.2,124.5V933.4h6.6V1068.3z
		 M887.1,1028.5c-3,8.3-7.2,15.4-12.7,21.3c-5.5,5.9-12.2,10.5-20,13.7c-7.9,3.2-16.7,4.8-26.4,4.8h-44.1V933.4H828
		c10.6,0,20,1.8,27.9,5.3c8,3.5,14.6,8.4,19.9,14.4c5.3,6.1,9.2,13.2,11.9,21.4s4,16.9,4,26.1
		C891.6,1010.9,890.1,1020.2,887.1,1028.5z M1005.3,1049.7c-2.2,4.3-5.4,7.9-9.6,10.8c-4.2,2.9-9.2,5.1-15.1,6.6
		c-5.9,1.5-12.4,2.2-19.7,2.2c-10.8,0-20.5-1.7-29.1-5c-8.6-3.4-16.6-8.5-23.9-15.5l4-4.8c6.3,6.5,13.6,11.3,21.7,14.6
		c8.1,3.3,17.3,4.9,27.5,4.9c12.7,0,22.6-2.3,29.9-6.9c7.3-4.6,10.9-11.7,10.9-21.2c0-4.8-0.9-8.9-2.7-12.3
		c-1.8-3.4-4.5-6.2-8.1-8.5c-3.6-2.3-8.2-4.4-13.7-6.1c-5.5-1.7-12-3.3-19.5-4.8c-7.3-1.5-13.8-3.1-19.5-4.8
		c-5.6-1.6-10.4-3.7-14.2-6.3c-3.9-2.5-6.8-5.6-8.7-9.3c-2-3.7-2.9-8.3-2.9-13.9c0-6,1.1-11.2,3.4-15.9c2.3-4.6,5.5-8.5,9.6-11.6
		c4.1-3.1,9.1-5.5,14.9-7.1c5.8-1.6,12.3-2.5,19.4-2.5c8.7,0,16.4,1.3,23,3.8c6.6,2.5,12.6,6.6,18,12.2l-3.6,4.9
		c-4.9-5.4-10.4-9.3-16.3-11.5c-6-2.2-12.9-3.3-20.9-3.3c-14.3,0-24.7,2.7-31.2,8.2c-6.5,5.4-9.7,12.7-9.7,21.8
		c0,4.6,0.8,8.4,2.4,11.5c1.6,3.1,4,5.7,7.3,7.9c3.3,2.2,7.5,4,12.7,5.4c5.2,1.5,11.4,2.9,18.6,4.5c7.3,1.5,14,3.2,19.9,4.9
		c6,1.8,11,4,15.2,6.7c4.2,2.7,7.4,6.1,9.7,10.2c2.3,4.1,3.4,9.1,3.4,15C1008.6,1040.4,1007.5,1045.4,1005.3,1049.7z M1131.2,1051.6
		c-3.9,3.9-8.3,7.2-13.1,9.9c-4.8,2.7-9.9,4.7-15.3,6c-5.4,1.3-10.6,2-15.7,2c-9.2,0-17.7-2-25.4-6.1c-7.7-4.1-14.3-9.3-19.9-15.9
		c-5.6-6.5-9.9-13.9-13-22.2c-3.1-8.3-4.7-16.8-4.7-25.4c0-8.1,1.4-16.1,4.3-24.1c2.9-8,7-15.2,12.4-21.6c5.4-6.4,12.1-11.6,20-15.6
		c7.9-4,16.9-6,27.1-6c12,0,22.3,2.8,30.7,8.3c8.4,5.5,14.7,12.6,18.7,21.2l-5.7,2.7c-2.5-4.8-5.5-8.9-8.8-12.2c-3.4-3.3-7-6-10.9-8
		c-3.9-2-8-3.5-12.2-4.4c-4.2-0.9-8.4-1.3-12.5-1.3c-9,0-17,1.8-24,5.4c-7,3.6-13,8.3-17.8,14.2c-4.8,5.8-8.5,12.4-10.9,19.8
		c-2.5,7.3-3.7,14.8-3.7,22.2c0,8.2,1.5,16.2,4.4,23.8c2.9,7.6,6.9,14.3,12.1,20c5.1,5.8,11.2,10.4,18.1,13.8
		c7,3.4,14.4,5.1,22.4,5.1c4.3,0,8.7-0.5,13.1-1.6c4.4-1.1,8.7-2.7,12.9-4.9c4.2-2.2,8-5,11.6-8.5c3.5-3.4,6.6-7.5,9.1-12.4l5.9,2.3
		C1138.2,1043.2,1135.1,1047.6,1131.2,1051.6z M1263.2,1068.3l-20-46.5h-67.6l-20,46.5h-7.2l58.1-134.9h5.7l58,134.9H1263.2z
		 M1383,990.1c-1.8,5-4.4,9.4-7.7,13.3c-3.3,3.9-7.2,7-11.8,9.3c-4.6,2.3-9.6,3.5-15.2,3.5h-49.8v52.1h-6.6V933.4h55.3
		c5.6,0,10.7,1.2,15.4,3.6c4.7,2.4,8.7,5.5,12.2,9.4c3.4,3.9,6.1,8.3,8.1,13.2c2,4.9,2.9,9.9,2.9,15
		C1385.8,979.9,1384.9,985.1,1383,990.1z M1498.8,1068.3h-89.1V933.4h87.4v6.1h-80.8v56.8h70.7v6.1h-70.7v59.8h82.5V1068.3z
		 M1526.3,980c1.6,3.1,4,5.7,7.3,7.9c3.3,2.2,7.5,4,12.7,5.4c5.2,1.5,11.4,2.9,18.6,4.5c7.3,1.5,14,3.2,20,4.9c6,1.8,11,4,15.2,6.7
		c4.2,2.7,7.4,6.1,9.7,10.2c2.3,4.1,3.4,9.1,3.4,15c0,5.7-1.1,10.7-3.3,15c-2.2,4.3-5.4,7.9-9.6,10.8c-4.2,2.9-9.2,5.1-15.1,6.6
		c-5.9,1.5-12.4,2.2-19.7,2.2c-10.8,0-20.5-1.7-29.1-5c-8.6-3.4-16.6-8.5-23.9-15.5l4-4.8c6.3,6.5,13.6,11.3,21.7,14.6
		c8.1,3.3,17.3,4.9,27.6,4.9c12.7,0,22.6-2.3,29.9-6.9c7.3-4.6,10.9-11.7,10.9-21.2c0-4.8-0.9-8.9-2.7-12.3
		c-1.8-3.4-4.5-6.2-8.1-8.5c-3.6-2.3-8.2-4.4-13.7-6.1s-12-3.3-19.5-4.8c-7.3-1.5-13.8-3.1-19.5-4.8c-5.6-1.6-10.4-3.7-14.2-6.3
		c-3.9-2.5-6.8-5.6-8.7-9.3c-2-3.7-2.9-8.3-2.9-13.9c0-6,1.1-11.2,3.4-15.9c2.3-4.6,5.5-8.5,9.6-11.6c4.1-3.1,9.1-5.5,14.9-7.1
		c5.8-1.6,12.3-2.5,19.4-2.5c8.7,0,16.4,1.3,23,3.8c6.6,2.5,12.6,6.6,18,12.2l-3.6,4.9c-4.9-5.4-10.4-9.3-16.3-11.5
		c-6-2.2-12.9-3.3-20.9-3.3c-14.3,0-24.7,2.7-31.2,8.2c-6.5,5.4-9.7,12.7-9.7,21.8C1523.9,973.1,1524.7,976.9,1526.3,980z"/>
</g>
</svg>
