<svg id="Livello_1" data-name="Livello 1" xmlns="http://www.w3.org/2000/svg" viewBox="0 0 2000 4000"><defs><style>.cls-1{fill:#fff;}</style></defs><title>Landscapes</title><path class="cls-1" d="M860.73,2965.79a40.19,40.19,0,0,0-13.87-10,45.72,45.72,0,0,0-18.62-3.61h-26.6v97.28h26.6a45.78,45.78,0,0,0,18.91-3.7A38.93,38.93,0,0,0,861,3035.52a44.25,44.25,0,0,0,8.45-15.49,63.39,63.39,0,0,0,2.85-19.38,62.32,62.32,0,0,0-2.94-19.57A42.68,42.68,0,0,0,860.73,2965.79Z"/><polygon class="cls-1" points="1187.15 3015.85 1231.23 3015.85 1209.57 2957.9 1187.15 3015.85"/><path class="cls-1" d="M1359.1,2959.14a21.63,21.63,0,0,0-6.94-5.13,19.06,19.06,0,0,0-8.07-1.81h-34v50.35h35.15a17.78,17.78,0,0,0,8.26-1.9,19,19,0,0,0,6.37-5.32,26.77,26.77,0,0,0,4.18-8,31.76,31.76,0,0,0,1.52-10.07,29.05,29.05,0,0,0-1.71-10.26A24.19,24.19,0,0,0,1359.1,2959.14Z"/><polygon class="cls-1" points="532.99 3015.85 577.07 3015.85 555.41 2957.9 532.99 3015.85"/><path class="cls-1" d="M1451.84,2548.16a637,637,0,1,0,137,203.12A636.84,636.84,0,0,0,1451.84,2548.16ZM489.1,3068.29H395.43v-134.9h21.28v116.09H489.1Zm106.4,0-14.25-36.67H529.19l-14.06,36.67H492.52l53.58-134.9h18.62l53.2,134.9Zm154.46,0H732.29l-76.38-95v95H634.63v-134.9h16.72l77.14,97.28v-97.09H750Zm139.37-39.8a60.86,60.86,0,0,1-13.21,21.28,58.53,58.53,0,0,1-20.71,13.68,72.8,72.8,0,0,1-27.17,4.84H780.36v-134.9h47.88q16.35,0,28.6,5.32a59,59,0,0,1,20.52,14.44,60.43,60.43,0,0,1,12.44,21.38,80.29,80.29,0,0,1,4.18,26.12A79.08,79.08,0,0,1,889.33,3028.49Zm118,20a33.25,33.25,0,0,1-10.64,12.07,47.18,47.18,0,0,1-15.68,6.84,80.9,80.9,0,0,1-19.19,2.18,95.78,95.78,0,0,1-29.73-4.65,85,85,0,0,1-25.94-13.59l9.69-18.24a44.63,44.63,0,0,0,7.13,5.51,65.83,65.83,0,0,0,10.83,5.61,94.26,94.26,0,0,0,13.39,4.37,61.82,61.82,0,0,0,15,1.8q12.54,0,19.38-4.37t6.84-12.92a13.85,13.85,0,0,0-2.56-8.55,22,22,0,0,0-7.32-6,64.35,64.35,0,0,0-11.59-4.66q-6.84-2.09-15.58-4.37a161.34,161.34,0,0,1-17.57-5.6,43.72,43.72,0,0,1-12.45-7.13,27.89,27.89,0,0,1-7.5-9.78,32.53,32.53,0,0,1-2.57-13.59,39.23,39.23,0,0,1,3.8-17.57A37.51,37.51,0,0,1,925.43,2943a45.47,45.47,0,0,1,15.48-7.89,67.7,67.7,0,0,1,19.38-2.66,71.16,71.16,0,0,1,25.27,4.37,84.08,84.08,0,0,1,20.33,10.83l-9.69,17.48a29.19,29.19,0,0,0-5.51-4.46,56.11,56.11,0,0,0-8.45-4.47,62.32,62.32,0,0,0-10.64-3.42,53.42,53.42,0,0,0-11.88-1.33q-13.49,0-19.85,4.94t-6.37,13.68a14.81,14.81,0,0,0,2,8.08,17,17,0,0,0,6.17,5.51,48.47,48.47,0,0,0,10.45,4.18q6.27,1.8,14.63,3.89a169.57,169.57,0,0,1,18.53,5.51,52.89,52.89,0,0,1,14,7.41,30.28,30.28,0,0,1,8.84,10.74,34.76,34.76,0,0,1,3.13,15.48A37.59,37.59,0,0,1,1007.32,3048.53Zm126.25,2.95a58.34,58.34,0,0,1-13.3,9.78,67.9,67.9,0,0,1-15.68,6.08,65.74,65.74,0,0,1-16.24,2.09,55.81,55.81,0,0,1-26-6.08,68.26,68.26,0,0,1-20.33-15.86,72.88,72.88,0,0,1-13.3-22.23,69.72,69.72,0,0,1-.38-49.59,67.08,67.08,0,0,1,12.82-21.66,64.74,64.74,0,0,1,20.62-15.49,62.47,62.47,0,0,1,27.55-5.89q18.42,0,31.54,8.17a53.09,53.09,0,0,1,19.76,21.28l-16.72,11.21A38.27,38.27,0,0,0,1117,2963a33.66,33.66,0,0,0-8.74-6.65,38,38,0,0,0-9.88-3.51,49.23,49.23,0,0,0-9.88-1,38.83,38.83,0,0,0-18.62,4.28,41.27,41.27,0,0,0-13.39,11.3,50.45,50.45,0,0,0-8.17,15.77,57.82,57.82,0,0,0-2.76,17.48,54.69,54.69,0,0,0,3.23,18.81,50.7,50.7,0,0,0,9,15.77,44.3,44.3,0,0,0,13.77,10.93,37.81,37.81,0,0,0,17.48,4.08,44.4,44.4,0,0,0,10.17-1.23,37.59,37.59,0,0,0,10.06-4,40.35,40.35,0,0,0,8.94-6.94A34.49,34.49,0,0,0,1125,3028l17.67,10.07A41.09,41.09,0,0,1,1133.57,3051.48Zm116.09,16.81-14.25-36.67h-52.06l-14.06,36.67h-22.61l53.58-134.9h18.62l53.2,134.9Zm134.61-74.57a46.06,46.06,0,0,1-8.26,14.06,40.29,40.29,0,0,1-12.83,9.88,37,37,0,0,1-16.62,3.7h-36.48v46.93H1288.8v-134.9h56.62a37.47,37.47,0,0,1,16.81,3.8,43.2,43.2,0,0,1,13.21,10,47.08,47.08,0,0,1,8.64,14.06,43.13,43.13,0,0,1,3.14,16.05A46.71,46.71,0,0,1,1384.27,2993.72Zm115.42,74.57h-92.53v-134.9H1498v18.81h-69.54v38.38h60.23v17.67h-60.23v41.23h71.25Zm38.29-90.15a17.12,17.12,0,0,0,6.17,5.51,48.47,48.47,0,0,0,10.45,4.18q6.27,1.8,14.63,3.89a169.57,169.57,0,0,1,18.53,5.51,52.89,52.89,0,0,1,14,7.41,30.28,30.28,0,0,1,8.84,10.74,34.76,34.76,0,0,1,3.13,15.48,37.59,37.59,0,0,1-3.89,17.67,33.25,33.25,0,0,1-10.64,12.07,47.09,47.09,0,0,1-15.68,6.84,80.9,80.9,0,0,1-19.19,2.18,95.78,95.78,0,0,1-29.73-4.65,85,85,0,0,1-25.94-13.59l9.69-18.24a44.63,44.63,0,0,0,7.13,5.51,65.83,65.83,0,0,0,10.83,5.61,94.26,94.26,0,0,0,13.39,4.37,61.88,61.88,0,0,0,15,1.8q12.54,0,19.38-4.37t6.84-12.92a13.85,13.85,0,0,0-2.56-8.55,22,22,0,0,0-7.32-6,64.05,64.05,0,0,0-11.59-4.66q-6.84-2.09-15.58-4.37a161.34,161.34,0,0,1-17.57-5.6,43.86,43.86,0,0,1-12.45-7.13,27.89,27.89,0,0,1-7.5-9.78,32.53,32.53,0,0,1-2.57-13.59,39.23,39.23,0,0,1,3.8-17.57,37.62,37.62,0,0,1,10.36-12.92,45.47,45.47,0,0,1,15.48-7.89,67.8,67.8,0,0,1,19.38-2.66,71.12,71.12,0,0,1,25.27,4.37,83.89,83.89,0,0,1,20.33,10.83l-9.69,17.48a28.86,28.86,0,0,0-5.51-4.46,55.62,55.62,0,0,0-8.45-4.47,62.32,62.32,0,0,0-10.64-3.42,53.35,53.35,0,0,0-11.88-1.33q-13.48,0-19.85,4.94t-6.37,13.68A14.81,14.81,0,0,0,1538,2978.14Z"/><path class="cls-1" d="M0,0V4000H2000V0ZM1609.05,3257.29A663.11,663.11,0,1,1,1661,3000,658.69,658.69,0,0,1,1609.05,3257.29Z"/></svg>