<svg id="Livello_1" data-name="Livello 1" xmlns="http://www.w3.org/2000/svg" viewBox="0 0 2000 4000"><defs><style>.cls-1{fill:#fff;}</style></defs><title>Senza titolo-1</title><path class="cls-1" d="M1010.88,2998.23h-.48c-2.41,9.64-5.06,19.52-8.2,29.4l-15.9,47h48.92l-15.91-46.75C1015.7,3017.27,1013.29,3007.63,1010.88,2998.23Z"/><path class="cls-1" d="M0,0V4000H2000V0ZM1840.79,3418.19a915.64,915.64,0,0,1-485.6,485.6c-112.51,47.58-232,71.71-355.19,71.71s-242.68-24.13-355.19-71.71a915.73,915.73,0,0,1-485.6-485.6c-47.58-112.51-71.71-232-71.71-355.19s24.13-242.68,71.71-355.19a915.73,915.73,0,0,1,485.6-485.6c112.51-47.58,232-71.71,355.19-71.71s242.68,24.13,355.19,71.71a915.64,915.64,0,0,1,485.6,485.6c47.58,112.51,71.71,232,71.71,355.19S1888.37,3305.68,1840.79,3418.19Z"/><path class="cls-1" d="M1164.4,2994.14c-34.71,0-52.06,32.05-52.06,67.72,0,34.7,18.8,65.79,51.82,65.79,33.25,0,52-30.61,52-67.48C1216.21,3027.88,1199.34,2994.14,1164.4,2994.14Z"/><path class="cls-1" d="M1627.56,2435.44a884.59,884.59,0,0,0-282.11-190.2C1236,2199,1119.82,2175.5,1000,2175.5S764,2199,654.55,2245.24a890.61,890.61,0,0,0-472.31,472.31C136,2827,112.5,2943.18,112.5,3063s23.46,236,69.74,345.45a890.61,890.61,0,0,0,472.31,472.31C764,3927,880.18,3950.5,1000,3950.5s236-23.46,345.45-69.74a890.61,890.61,0,0,0,472.31-472.31C1864,3299,1887.5,3182.82,1887.5,3063s-23.46-236-69.74-345.45A884.59,884.59,0,0,0,1627.56,2435.44ZM833.27,3126.93c12.77,0,25.78-2.66,34.22-6.75l4.34,16.63c-7.72,3.85-23.14,7.71-42.9,7.71-45.79,0-80.25-28.92-80.25-82.18,0-50.85,34.46-85.31,84.83-85.31,20.24,0,33,4.33,38.56,7.22L867,3001.37c-8-3.86-19.28-6.75-32.78-6.75-38.08,0-63.38,24.34-63.38,67C770.85,3101.38,793.74,3126.93,833.27,3126.93Zm85.79,15.18h-21V2979.68h21Zm137.85,0L1039.56,3091H982l-16.87,51.09H943.4l55.19-162.43h25.3l55.43,162.43Zm106,2.65c-42.9,0-73-33.26-73-82.42,0-51.58,32-85.31,75.43-85.31,44.34,0,73,34,73,82.18C1238.38,3115.12,1204.4,3144.76,1163,3144.76Z"/></svg>