<svg id="Livello_1" data-name="Livello 1" xmlns="http://www.w3.org/2000/svg" viewBox="0 0 2000 4000"><defs><style>.cls-1{fill:#fff;}</style></defs><title>Portraits</title><path class="cls-1" d="M836.12,2977.28a26.15,26.15,0,0,0-1.8-9.69,28,28,0,0,0-4.75-8,22.65,22.65,0,0,0-6.84-5.41,17.52,17.52,0,0,0-8.07-2h-36.1v50.35H815.8a17.16,17.16,0,0,0,8.26-2,19.68,19.68,0,0,0,6.37-5.51,27.83,27.83,0,0,0,4.17-8.08A30.26,30.26,0,0,0,836.12,2977.28Z"/><path class="cls-1" d="M1076.67,2977.28a26.16,26.16,0,0,0-1.81-9.69,27.78,27.78,0,0,0-4.75-8,22.41,22.41,0,0,0-6.84-5.41,17.52,17.52,0,0,0-8.07-2h-36.1v50.35h37.24a17.13,17.13,0,0,0,8.26-2,19.68,19.68,0,0,0,6.37-5.51,28.1,28.1,0,0,0,4.18-8.08A30.54,30.54,0,0,0,1076.67,2977.28Z"/><path class="cls-1" d="M701.7,2966.74a43.19,43.19,0,0,0-13.49-10.83,40.4,40.4,0,0,0-35.81.19,43.42,43.42,0,0,0-13.49,11.11,49.71,49.71,0,0,0-8.46,15.68,56.83,56.83,0,0,0,.1,36.38,49.81,49.81,0,0,0,8.64,15.77A42.17,42.17,0,0,0,652.78,3046a38.65,38.65,0,0,0,17.86,4.08,37.45,37.45,0,0,0,18.14-4.27,42.72,42.72,0,0,0,13.4-11.31,50.9,50.9,0,0,0,8.36-15.77,57.66,57.66,0,0,0-.19-36.38A49.18,49.18,0,0,0,701.7,2966.74Z"/><path class="cls-1" d="M566.33,2959.14a21.63,21.63,0,0,0-6.94-5.13,19,19,0,0,0-8.07-1.81h-34v50.35h35.15a17.78,17.78,0,0,0,8.26-1.9,19,19,0,0,0,6.37-5.32,26.77,26.77,0,0,0,4.18-8,31.76,31.76,0,0,0,1.52-10.07,29.05,29.05,0,0,0-1.71-10.26A24.19,24.19,0,0,0,566.33,2959.14Z"/><polygon class="cls-1" points="1147.92 3015.85 1192 3015.85 1170.34 2957.9 1147.92 3015.85"/><path class="cls-1" d="M0,0V4000H2000V0ZM1609.05,3257.29A663.11,663.11,0,1,1,1661,3000,658.69,658.69,0,0,1,1609.05,3257.29Z"/><path class="cls-1" d="M1451.84,2548.16a637,637,0,1,0,137,203.12A636.84,636.84,0,0,0,1451.84,2548.16ZM591.5,2993.72a46.06,46.06,0,0,1-8.26,14.06,40.18,40.18,0,0,1-12.83,9.88,37,37,0,0,1-16.62,3.7H517.31v46.93H496v-134.9h56.62a37.47,37.47,0,0,1,16.81,3.8,43.2,43.2,0,0,1,13.21,10,47.08,47.08,0,0,1,8.64,14.06,43.13,43.13,0,0,1,3.14,16.05A46.49,46.49,0,0,1,591.5,2993.72Zm138.89,33.15a68.28,68.28,0,0,1-13.58,21.76,66.93,66.93,0,0,1-20.62,15,62.34,62.34,0,0,1-52.06-.19,65.4,65.4,0,0,1-20.42-15.39,69.46,69.46,0,0,1-13.21-21.95,71.13,71.13,0,0,1-4.65-25.27,68.85,68.85,0,0,1,4.94-25.84,71.65,71.65,0,0,1,13.58-21.85,64.9,64.9,0,0,1,20.52-15.1,60,60,0,0,1,25.94-5.61,57.64,57.64,0,0,1,26.31,6,66.22,66.22,0,0,1,20.33,15.67,72,72,0,0,1,13.11,22,70.27,70.27,0,0,1-.19,50.82ZM839,3068.29l-29.26-46.93H778.56v46.93H757.28v-134.9H816a37.47,37.47,0,0,1,16.81,3.8,43.2,43.2,0,0,1,13.21,10,47.08,47.08,0,0,1,8.64,14.06,43.13,43.13,0,0,1,3.14,16.05,45.18,45.18,0,0,1-1.9,13.11,46,46,0,0,1-5.32,11.59,37.5,37.5,0,0,1-8.36,9.22,34.38,34.38,0,0,1-10.83,5.79l31.72,51.3ZM979.77,2952.2H934.93v116.09H913.46V2952.2h-45v-18.81H979.77Zm99.75,116.09-29.26-46.93H1019.1v46.93H997.82v-134.9h58.71a37.47,37.47,0,0,1,16.81,3.8,43.2,43.2,0,0,1,13.21,10,47.08,47.08,0,0,1,8.64,14.06,43.13,43.13,0,0,1,3.14,16.05,45.18,45.18,0,0,1-1.9,13.11,46,46,0,0,1-5.32,11.59,37.5,37.5,0,0,1-8.36,9.22,34.38,34.38,0,0,1-10.83,5.79l31.73,51.3Zm130.91,0-14.25-36.67h-52.06l-14.06,36.67h-22.61l53.58-134.9h18.62l53.2,134.9Zm60.42,0h-21.28v-134.9h21.28Zm129.38-116.09h-44.84v116.09h-21.47V2952.2h-45v-18.81h111.34Zm109,96.33a33.25,33.25,0,0,1-10.64,12.07,47.18,47.18,0,0,1-15.68,6.84,80.9,80.9,0,0,1-19.19,2.18A95.78,95.78,0,0,1,1434,3065a85,85,0,0,1-25.94-13.59l9.69-18.24a44.63,44.63,0,0,0,7.13,5.51,65.83,65.83,0,0,0,10.83,5.61,94.26,94.26,0,0,0,13.39,4.37,61.88,61.88,0,0,0,15,1.8q12.54,0,19.38-4.37t6.84-12.92a13.85,13.85,0,0,0-2.56-8.55,22,22,0,0,0-7.32-6,64.05,64.05,0,0,0-11.59-4.66q-6.84-2.09-15.58-4.37a161.34,161.34,0,0,1-17.57-5.6,43.86,43.86,0,0,1-12.45-7.13,27.89,27.89,0,0,1-7.5-9.78,32.53,32.53,0,0,1-2.57-13.59,39.23,39.23,0,0,1,3.8-17.57,37.62,37.62,0,0,1,10.36-12.92,45.47,45.47,0,0,1,15.48-7.89,67.8,67.8,0,0,1,19.38-2.66,71.12,71.12,0,0,1,25.27,4.37,83.89,83.89,0,0,1,20.33,10.83l-9.69,17.48a28.86,28.86,0,0,0-5.51-4.46,55.62,55.62,0,0,0-8.45-4.47,62.32,62.32,0,0,0-10.64-3.42,53.35,53.35,0,0,0-11.88-1.33q-13.49,0-19.85,4.94t-6.37,13.68a14.81,14.81,0,0,0,2,8.08,17.12,17.12,0,0,0,6.17,5.51,48.47,48.47,0,0,0,10.45,4.18q6.27,1.8,14.63,3.89a169.57,169.57,0,0,1,18.53,5.51,52.89,52.89,0,0,1,14,7.41,30.28,30.28,0,0,1,8.84,10.74,34.76,34.76,0,0,1,3.13,15.48A37.59,37.59,0,0,1,1509.2,3048.53Z"/></svg>