<svg id="Livello_1" data-name="Livello 1" xmlns="http://www.w3.org/2000/svg" viewBox="0 0 2000 2000"><defs><style>.cls-1{fill:#e6e6e6;}</style></defs><title>PORTRAITS-2</title><polygon class="cls-1" points="1140.22 1016.04 1203.87 1016.04 1172.14 941.75 1140.22 1016.04"/><path class="cls-1" d="M1085.12,999.13a36.42,36.42,0,0,0,6.17-11.4,40.52,40.52,0,0,0,2.19-13.11,35.16,35.16,0,0,0-2.56-13.2,37.62,37.62,0,0,0-6.94-11.21,34.28,34.28,0,0,0-10.26-7.79,27.73,27.73,0,0,0-12.54-2.95h-48.64v70.68h50a27.17,27.17,0,0,0,12.83-3A30.67,30.67,0,0,0,1085.12,999.13Z"/><path class="cls-1" d="M850.09,999.13a36.65,36.65,0,0,0,6.18-11.4,40.78,40.78,0,0,0,2.18-13.11,35,35,0,0,0-2.56-13.2A37.62,37.62,0,0,0,849,950.21a34.28,34.28,0,0,0-10.26-7.79,27.73,27.73,0,0,0-12.54-2.95H777.51v70.68h50a27.17,27.17,0,0,0,12.83-3A30.67,30.67,0,0,0,850.09,999.13Z"/><path class="cls-1" d="M721.18,957.62a57,57,0,0,0-17.86-13.78A49.64,49.64,0,0,0,681,938.71a49,49,0,0,0-23.08,5.42,58.74,58.74,0,0,0-17.77,14.15,66.78,66.78,0,0,0-15.58,42.56,66.47,66.47,0,0,0,4.18,23.37,64.06,64.06,0,0,0,11.69,19.86,56.71,56.71,0,0,0,17.86,13.77A50.41,50.41,0,0,0,681,1063a49.08,49.08,0,0,0,23.09-5.41,58.7,58.7,0,0,0,17.76-14.16,63.3,63.3,0,0,0,11.4-20,67,67,0,0,0,4-22.61A65.08,65.08,0,0,0,733,977.47,65.75,65.75,0,0,0,721.18,957.62Z"/><path class="cls-1" d="M587.32,950.21a34.75,34.75,0,0,0-10.16-7.79,27.15,27.15,0,0,0-12.45-2.95H516.26v70.68h49.59a27,27,0,0,0,12.92-3,30.46,30.46,0,0,0,9.69-8.07,38.29,38.29,0,0,0,6.18-11.4,40,40,0,0,0,2.18-13,35,35,0,0,0-2.56-13.2A37.42,37.42,0,0,0,587.32,950.21Z"/><path class="cls-1" d="M0,0V2000H2000V0ZM1602.14,1254.37A655.59,655.59,0,1,1,1653.5,1000,651.09,651.09,0,0,1,1602.14,1254.37Z"/><path class="cls-1" d="M1457.14,542.86A644.36,644.36,0,1,0,1595.7,748.35,644.38,644.38,0,0,0,1457.14,542.86ZM600.72,990.11a43.25,43.25,0,0,1-7.7,13.3,38.32,38.32,0,0,1-11.78,9.31,32.78,32.78,0,0,1-15.2,3.51H516.26v52.06h-6.65V933.39H564.9A33.23,33.23,0,0,1,580.29,937a41.32,41.32,0,0,1,12.16,9.41,44.68,44.68,0,0,1,8.08,13.2,40.42,40.42,0,0,1,2.94,15A44.76,44.76,0,0,1,600.72,990.11ZM739,1026.87a71.06,71.06,0,0,1-13.3,21.76,64.81,64.81,0,0,1-20,15,58.26,58.26,0,0,1-50.45-.29,66.26,66.26,0,0,1-20-15.39,68.77,68.77,0,0,1-12.92-21.85,72.38,72.38,0,0,1-4.56-25.27A70.17,70.17,0,0,1,622.76,975a72.28,72.28,0,0,1,13.3-21.85,63.92,63.92,0,0,1,20-15.1,56.18,56.18,0,0,1,25-5.61,55,55,0,0,1,25.65,6A65,65,0,0,1,726.5,954.1a72.47,72.47,0,0,1,12.82,21.95,71,71,0,0,1-.28,50.82Zm119,41.42-33.44-52.06H777.51v52.06h-6.65V933.39h55.48A33.88,33.88,0,0,1,841.83,937a40.94,40.94,0,0,1,12.25,9.41,43,43,0,0,1,8,13.2,41.54,41.54,0,0,1,2.85,15,46,46,0,0,1-2.37,14.82,41.38,41.38,0,0,1-6.75,12.54,37.73,37.73,0,0,1-10.45,9.12,32.44,32.44,0,0,1-13.49,4.37l33.82,52.82ZM984.23,939.47H933.69v128.82H927V939.47H876.5v-6.08H984.23Zm108.87,128.82-33.44-52.06h-47.12v52.06h-6.65V933.39h55.48a33.88,33.88,0,0,1,15.49,3.61,40.94,40.94,0,0,1,12.25,9.41,43,43,0,0,1,8,13.2,41.54,41.54,0,0,1,2.85,15,46,46,0,0,1-2.37,14.82,41.38,41.38,0,0,1-6.75,12.54,37.73,37.73,0,0,1-10.45,9.12,32.44,32.44,0,0,1-13.49,4.37l33.82,52.82Zm132.81,0-20-46.55h-67.64l-20,46.55h-7.22l58.14-134.9h5.7l58,134.9Zm35.34,0h-6.65V933.39h6.65Zm129.39-128.82H1340.1v128.82h-6.65V939.47h-50.54v-6.08h107.73Zm107.82,110.2a29.56,29.56,0,0,1-9.59,10.83,45.06,45.06,0,0,1-15.11,6.56,82.28,82.28,0,0,1-19.66,2.18,79.43,79.43,0,0,1-29.07-5,73.39,73.39,0,0,1-23.94-15.49l4-4.75a63.53,63.53,0,0,0,21.66,14.63,72.51,72.51,0,0,0,27.55,4.94q19,0,29.92-6.93t10.93-21.19a26,26,0,0,0-2.66-12.25,23.07,23.07,0,0,0-8.08-8.55,55.39,55.39,0,0,0-13.68-6.08q-8.27-2.56-19.47-4.85-11-2.28-19.48-4.75a52.54,52.54,0,0,1-14.25-6.27,25.41,25.41,0,0,1-8.74-9.31q-2.94-5.5-2.94-13.87a35.39,35.39,0,0,1,3.42-15.86,32.05,32.05,0,0,1,9.59-11.59,44.87,44.87,0,0,1,14.92-7.13,71.35,71.35,0,0,1,19.38-2.47,63.92,63.92,0,0,1,23,3.8,50.77,50.77,0,0,1,18,12.16l-3.61,4.94a41.91,41.91,0,0,0-16.34-11.49,59.75,59.75,0,0,0-20.9-3.33q-21.48,0-31.16,8.17t-9.69,21.85a25.17,25.17,0,0,0,2.37,11.5,20.56,20.56,0,0,0,7.32,7.88,45.8,45.8,0,0,0,12.73,5.42q7.78,2.19,18.62,4.46,11,2.28,20,4.94a58.56,58.56,0,0,1,15.2,6.75,29.08,29.08,0,0,1,9.69,10.16q3.42,6.09,3.42,15A32.3,32.3,0,0,1,1498.46,1049.67Z"/></svg>