<svg id="Livello_1" data-name="Livello 1" xmlns="http://www.w3.org/2000/svg" viewBox="0 0 2000 2000"><defs><style>.cls-1{fill:#fafafa;}</style></defs><title>PORTRAITS-3</title><path class="cls-1" d="M809.62,980a23.73,23.73,0,0,0-7.31-5.84A20.05,20.05,0,0,0,793,972a20.27,20.27,0,0,0-9.69,2.28,23.46,23.46,0,0,0-7.27,6,27.56,27.56,0,0,0-4.61,8.45,30.25,30.25,0,0,0,0,19.62,27.56,27.56,0,0,0,4.7,8.5,22.73,22.73,0,0,0,7.32,5.89,20.54,20.54,0,0,0,9.5,2.19,20,20,0,0,0,9.69-2.33,23.74,23.74,0,0,0,7.27-6.08,27.3,27.3,0,0,0,4.56-8.5,30.62,30.62,0,0,0,1.56-9.6,30.08,30.08,0,0,0-1.66-9.93A26.42,26.42,0,0,0,809.62,980Z"/><path class="cls-1" d="M888.23,996.09a14.7,14.7,0,0,0,2.38-4.51,16.69,16.69,0,0,0,.85-5.32,14.36,14.36,0,0,0-1-5.37,15.92,15.92,0,0,0-2.65-4.46,12.06,12.06,0,0,0-3.9-3,10.55,10.55,0,0,0-4.7-1.09H859.35v28h20.43a10.07,10.07,0,0,0,4.8-1.14A11.39,11.39,0,0,0,888.23,996.09Z"/><path class="cls-1" d="M1036.91,996.09a14.89,14.89,0,0,0,2.37-4.51,16.7,16.7,0,0,0,.86-5.32,14.56,14.56,0,0,0-1-5.37,16,16,0,0,0-2.66-4.46,12.06,12.06,0,0,0-3.9-3,10.49,10.49,0,0,0-4.7-1.09H1008v28h20.42a10,10,0,0,0,4.8-1.14A11.53,11.53,0,0,0,1036.91,996.09Z"/><path class="cls-1" d="M728.3,976.29a11.75,11.75,0,0,0-3.89-2.95,11.07,11.07,0,0,0-4.7-1h-19.1v28h19.67a10.33,10.33,0,0,0,4.79-1.09,10.81,10.81,0,0,0,3.66-3,15,15,0,0,0,2.38-4.51,17,17,0,0,0,.85-5.42,15,15,0,0,0-1-5.51A14.68,14.68,0,0,0,728.3,976.29Z"/><path class="cls-1" d="M0,0V2000H2000V0ZM1602.6,1254.57A656.11,656.11,0,1,1,1654,1000,651.79,651.79,0,0,1,1602.6,1254.57Z"/><polygon class="cls-1" points="1087.73 1005.74 1112.43 1005.74 1100.27 974.58 1087.73 1005.74"/><path class="cls-1" d="M1456.79,543.21a643.91,643.91,0,1,0,138.45,205.34A643.86,643.86,0,0,0,1456.79,543.21ZM739.18,994.34a22.19,22.19,0,0,1-4,6.93,19.51,19.51,0,0,1-6.27,4.85,18.13,18.13,0,0,1-8.12,1.8H700.61v24.23h-8.55V964.7h28.12a18.23,18.23,0,0,1,8.22,1.85,20.64,20.64,0,0,1,6.46,4.94,23.9,23.9,0,0,1,4.23,6.93,21.26,21.26,0,0,1,1.52,7.84A23.35,23.35,0,0,1,739.18,994.34Zm83.08,17.1a35.91,35.91,0,0,1-6.65,10.88,32.16,32.16,0,0,1-10.07,7.5,29,29,0,0,1-12.69,2.8,28.63,28.63,0,0,1-13-2.9,32,32,0,0,1-10-7.69,35.2,35.2,0,0,1-6.46-11,36.24,36.24,0,0,1-2.28-12.64,35,35,0,0,1,2.43-12.92,35.48,35.48,0,0,1,6.69-10.92A32.28,32.28,0,0,1,780.36,967a29.06,29.06,0,0,1,12.68-2.8,27.79,27.79,0,0,1,12.92,3,33.15,33.15,0,0,1,10,7.84,36.34,36.34,0,0,1,8.74,23.47A35.2,35.2,0,0,1,822.26,1011.44Zm70.34,20.71-15.39-24.23H859.35v24.23H850.8V964.7h28.88a18.23,18.23,0,0,1,8.22,1.85,20.53,20.53,0,0,1,6.46,4.94,23.68,23.68,0,0,1,4.23,6.93,21.26,21.26,0,0,1,1.52,7.84,23.29,23.29,0,0,1-1,6.79,20.93,20.93,0,0,1-2.85,5.94,18.8,18.8,0,0,1-4.47,4.56,17.36,17.36,0,0,1-5.84,2.76l16.34,25.84Zm82.94-59.85H952.26v59.85h-8.55V972.3H920.44v-7.6h55.1Zm65.74,59.85-15.39-24.23H1008v24.23h-8.55V964.7h28.88a18.3,18.3,0,0,1,8.22,1.85,20.64,20.64,0,0,1,6.46,4.94,23.65,23.65,0,0,1,4.22,6.93,21.26,21.26,0,0,1,1.52,7.84,23.29,23.29,0,0,1-1,6.79,21,21,0,0,1-2.86,5.94,18.76,18.76,0,0,1-4.46,4.56,17.36,17.36,0,0,1-5.84,2.76l16.34,25.84Zm81,0-8-19.76H1086l-7.88,19.76H1069l27.64-67.45h7.22l27.55,67.45Zm41,0h-8.55V964.7h8.55Zm79-59.85H1219v59.85h-8.55V972.3H1187.2v-7.6h55.09Zm68.69,50.11a16.78,16.78,0,0,1-5.18,5.89,22.41,22.41,0,0,1-7.74,3.42,40.67,40.67,0,0,1-9.69,1.09,44.86,44.86,0,0,1-14.77-2.42,40.87,40.87,0,0,1-12.68-7.08l4.08-7.22a22.26,22.26,0,0,0,3.94,3.23,31.68,31.68,0,0,0,5.51,2.9,40.73,40.73,0,0,0,6.65,2.09,33.58,33.58,0,0,0,7.46.81q7.21,0,11.21-2.57a9.49,9.49,0,0,0,2.71-12.49,11,11,0,0,0-3.75-3.37,29,29,0,0,0-6.13-2.52q-3.66-1.09-8.31-2.23a82.65,82.65,0,0,1-9-2.66,24.53,24.53,0,0,1-6.51-3.42,13,13,0,0,1-3.94-4.85,16,16,0,0,1-1.33-6.84,19.2,19.2,0,0,1,1.81-8.55,17.93,17.93,0,0,1,5-6.27,22,22,0,0,1,7.7-3.85,35.1,35.1,0,0,1,9.69-1.28,33.93,33.93,0,0,1,22.13,7.7l-4,6.93a14.07,14.07,0,0,0-3-2.56,27.15,27.15,0,0,0-4.27-2.24,30.8,30.8,0,0,0-5.18-1.61,27.22,27.22,0,0,0-5.84-.62q-7.89,0-11.55,2.95a9.78,9.78,0,0,0-3.65,8.07,9,9,0,0,0,1,4.56,8.62,8.62,0,0,0,3.28,3.09,24.89,24.89,0,0,0,5.56,2.23c2.21.64,4.84,1.3,7.88,2a82.53,82.53,0,0,1,9.45,2.61,27.27,27.27,0,0,1,7.22,3.66,14.58,14.58,0,0,1,4.56,5.32,17,17,0,0,1,1.57,7.69A17.58,17.58,0,0,1,1311,1022.41Z"/></svg>