<?xml version="1.0" encoding="utf-8"?>
<!-- Generator: Adobe Illustrator 22.0.1, SVG Export Plug-In . SVG Version: 6.00 Build 0)  -->
<svg version="1.1" id="Livello_1" xmlns="http://www.w3.org/2000/svg" xmlns:xlink="http://www.w3.org/1999/xlink" x="0px" y="0px"
	 viewBox="0 0 2000 2000" style="enable-background:new 0 0 2000 2000;" xml:space="preserve">
<style type="text/css">
	.st0{fill:#E6E6E6;}
</style>
<g>
	<path class="st0" d="M1457.1,542.9c-59.4-59.4-128.5-106-205.5-138.6c-79.7-33.7-164.4-50.8-251.6-50.8s-171.9,17.1-251.6,50.8
		c-77,32.6-146.1,79.2-205.5,138.6s-106,128.5-138.6,205.5c-33.7,79.7-50.8,164.4-50.8,251.6s17.1,171.9,50.8,251.6
		c32.6,77,79.2,146.1,138.6,205.5s128.5,106,205.5,138.6c79.7,33.7,164.4,50.8,251.6,50.8s171.9-17.1,251.6-50.8
		c77-32.6,146.1-79.2,205.5-138.6c59.4-59.4,106-128.5,138.6-205.5c33.7-79.7,50.8-164.4,50.8-251.6s-17.1-171.9-50.8-251.6
		C1563.1,671.4,1516.5,602.2,1457.1,542.9z M644.6,1049.7c-2.2,4.3-5.4,7.9-9.6,10.8c-4.2,2.9-9.2,5.1-15.1,6.6
		c-5.9,1.5-12.4,2.2-19.7,2.2c-10.8,0-20.5-1.7-29.1-5c-8.6-3.4-16.6-8.5-23.9-15.5l4-4.8c6.3,6.5,13.6,11.3,21.7,14.6
		c8.1,3.3,17.3,4.9,27.5,4.9c12.7,0,22.6-2.3,29.9-6.9c7.3-4.6,10.9-11.7,10.9-21.2c0-4.8-0.9-8.9-2.7-12.3
		c-1.8-3.4-4.5-6.2-8.1-8.5c-3.6-2.3-8.2-4.4-13.7-6.1c-5.5-1.7-12-3.3-19.5-4.8c-7.3-1.5-13.8-3.1-19.5-4.8
		c-5.6-1.6-10.4-3.7-14.2-6.3c-3.9-2.5-6.8-5.6-8.7-9.3c-2-3.7-2.9-8.3-2.9-13.9c0-6,1.1-11.2,3.4-15.9c2.3-4.6,5.5-8.5,9.6-11.6
		c4.1-3.1,9.1-5.5,14.9-7.1c5.8-1.6,12.3-2.5,19.4-2.5c8.7,0,16.4,1.3,23,3.8c6.6,2.5,12.6,6.6,18,12.2l-3.6,4.9
		c-4.9-5.4-10.4-9.3-16.3-11.5c-6-2.2-12.9-3.3-20.9-3.3c-14.3,0-24.7,2.7-31.2,8.2c-6.5,5.4-9.7,12.7-9.7,21.8
		c0,4.6,0.8,8.4,2.4,11.5c1.6,3.1,4,5.7,7.3,7.9c3.3,2.2,7.5,4,12.7,5.4c5.2,1.5,11.4,2.9,18.6,4.5c7.3,1.5,14,3.2,19.9,4.9
		c6,1.8,11,4,15.2,6.7c4.2,2.7,7.4,6.1,9.7,10.2c2.3,4.1,3.4,9.1,3.4,15C647.9,1040.4,646.8,1045.4,644.6,1049.7z M765,939.5h-50.5
		v128.8h-6.6V939.5h-50.5v-6.1H765V939.5z M793.3,1068.3h-6.6V933.4h6.6V1068.3z M919.1,1068.3h-89.3V933.4h6.6v128.8h82.6V1068.3z
		 M1029.3,1068.3H940V933.4h6.6v128.8h82.7V1068.3z M1183.5,1068.3h-89.3V933.4h6.6v128.8h82.7V1068.3z M1211.1,1068.3h-6.6V933.4
		h6.6V1068.3z M1335,939.5h-80.8v57h68.6v5.9h-68.6v65.9h-6.6V933.4h87.4V939.5z M1450.3,1068.3h-89.1V933.4h87.4v6.1h-80.8v56.8
		h70.7v6.1h-70.7v59.8h82.5V1068.3z"/>
	<path class="st0" d="M0,0v2000h2000V0H0z M1602.1,1254.4c-32.9,77.8-80,147.7-140,207.7c-60,60-129.9,107.1-207.7,140
		c-80.6,34.1-166.2,51.4-254.4,51.4c-88.2,0-173.8-17.3-254.4-51.4c-77.8-32.9-147.7-80-207.7-140c-60-60-107.1-129.9-140-207.7
		c-34.1-80.6-51.4-166.2-51.4-254.4c0-88.2,17.3-173.8,51.4-254.4c32.9-77.8,80-147.7,140-207.7s129.9-107.1,207.7-140
		c80.6-34.1,166.2-51.4,254.4-51.4c88.2,0,173.8,17.3,254.4,51.4c77.8,32.9,147.7,80,207.7,140c60,60,107.1,129.9,140,207.7
		c34.1,80.6,51.4,166.2,51.4,254.4C1653.5,1088.2,1636.2,1173.8,1602.1,1254.4z"/>
</g>
</svg>
