<svg id="Livello_1" data-name="Livello 1" xmlns="http://www.w3.org/2000/svg" viewBox="0 0 2000 4000"><defs><style>.cls-1{fill:#fff;}</style></defs><title>Studio</title><path class="cls-1" d="M1312.45,2966.74a43.08,43.08,0,0,0-13.49-10.83,37.63,37.63,0,0,0-17.57-4.09,38,38,0,0,0-18.24,4.28,43.42,43.42,0,0,0-13.49,11.11,49.92,49.92,0,0,0-8.46,15.68,56.83,56.83,0,0,0,.1,36.38,50,50,0,0,0,8.64,15.77,42.28,42.28,0,0,0,13.59,10.93,38.65,38.65,0,0,0,17.86,4.08,37.45,37.45,0,0,0,18.14-4.27,42.72,42.72,0,0,0,13.4-11.31,50.9,50.9,0,0,0,8.36-15.77,57.66,57.66,0,0,0-.19-36.38A49.18,49.18,0,0,0,1312.45,2966.74Z"/><path class="cls-1" d="M1451.84,2548.16a637,637,0,1,0,137,203.12A636.84,636.84,0,0,0,1451.84,2548.16ZM753.29,3048.53a33.25,33.25,0,0,1-10.64,12.07,47.18,47.18,0,0,1-15.68,6.84,80.9,80.9,0,0,1-19.19,2.18,95.78,95.78,0,0,1-29.73-4.65,85,85,0,0,1-25.94-13.59l9.69-18.24a44.63,44.63,0,0,0,7.13,5.51,65.83,65.83,0,0,0,10.83,5.61,94.26,94.26,0,0,0,13.39,4.37,61.82,61.82,0,0,0,15,1.8q12.54,0,19.38-4.37t6.84-12.92a13.85,13.85,0,0,0-2.56-8.55,22,22,0,0,0-7.32-6,64.35,64.35,0,0,0-11.59-4.66q-6.84-2.09-15.58-4.37a161.34,161.34,0,0,1-17.57-5.6,43.72,43.72,0,0,1-12.45-7.13,27.89,27.89,0,0,1-7.5-9.78,32.53,32.53,0,0,1-2.57-13.59,39.23,39.23,0,0,1,3.8-17.57A37.51,37.51,0,0,1,671.4,2943a45.47,45.47,0,0,1,15.48-7.89,67.7,67.7,0,0,1,19.38-2.66,71.16,71.16,0,0,1,25.27,4.37,84.08,84.08,0,0,1,20.33,10.83l-9.69,17.48a29.19,29.19,0,0,0-5.51-4.46,56.11,56.11,0,0,0-8.45-4.47,62.32,62.32,0,0,0-10.64-3.42,53.42,53.42,0,0,0-11.88-1.33q-13.49,0-19.85,4.94t-6.37,13.68a14.81,14.81,0,0,0,2,8.08,17,17,0,0,0,6.17,5.51,48.47,48.47,0,0,0,10.45,4.18q6.27,1.8,14.63,3.89a169.57,169.57,0,0,1,18.53,5.51,52.89,52.89,0,0,1,14,7.41,30.28,30.28,0,0,1,8.84,10.74,34.76,34.76,0,0,1,3.13,15.48A37.59,37.59,0,0,1,753.29,3048.53ZM876.5,2952.2H831.66v116.09H810.19V2952.2h-45v-18.81H876.5Zm132.62,49.59a102.33,102.33,0,0,1-3.23,26.13,60.16,60.16,0,0,1-10.26,21.47,49,49,0,0,1-18.14,14.53q-11.12,5.32-26.7,5.32-16.15,0-27.26-5.6a49.15,49.15,0,0,1-18-15,61.74,61.74,0,0,1-9.88-21.57,103.6,103.6,0,0,1-3-25.27v-68.4h21.28v68.4a87.18,87.18,0,0,0,1.81,18,46,46,0,0,0,6.08,15.39,32.2,32.2,0,0,0,11.4,10.83q7.13,4.08,17.57,4.08,10.63,0,17.67-4.18A33.22,33.22,0,0,0,979.77,3035a46.25,46.25,0,0,0,6.08-15.39,87,87,0,0,0,1.8-17.77v-68.4h21.47Zm137.28,26.7a60.86,60.86,0,0,1-13.21,21.28,58.53,58.53,0,0,1-20.71,13.68,72.83,72.83,0,0,1-27.17,4.84h-47.88v-134.9h47.88q16.34,0,28.6,5.32a59,59,0,0,1,20.52,14.44,60.58,60.58,0,0,1,12.44,21.38,80.29,80.29,0,0,1,4.18,26.12A79.08,79.08,0,0,1,1146.4,3028.49Zm48.35,39.8h-21.28v-134.9h21.28Zm146.39-41.42a68.28,68.28,0,0,1-13.58,21.76,66.81,66.81,0,0,1-20.62,15,62.34,62.34,0,0,1-52.06-.19,65.4,65.4,0,0,1-20.42-15.39,69.46,69.46,0,0,1-13.21-21.95,71.13,71.13,0,0,1-4.65-25.27,68.85,68.85,0,0,1,4.94-25.84,71.84,71.84,0,0,1,13.58-21.85,64.9,64.9,0,0,1,20.52-15.1,60,60,0,0,1,25.94-5.61,57.64,57.64,0,0,1,26.31,6,66.22,66.22,0,0,1,20.33,15.67,71.84,71.84,0,0,1,13.11,22,70.27,70.27,0,0,1-.19,50.82Z"/><path class="cls-1" d="M1117.8,2965.79a40.19,40.19,0,0,0-13.87-10,45.75,45.75,0,0,0-18.62-3.61h-26.6v97.28h26.6a45.81,45.81,0,0,0,18.91-3.7,38.93,38.93,0,0,0,13.87-10.26,44.25,44.25,0,0,0,8.45-15.49,63.39,63.39,0,0,0,2.85-19.38,62.32,62.32,0,0,0-2.94-19.57A42.68,42.68,0,0,0,1117.8,2965.79Z"/><path class="cls-1" d="M0,0V4000H2000V0ZM1609.05,3257.29A663.11,663.11,0,1,1,1661,3000,658.69,658.69,0,0,1,1609.05,3257.29Z"/></svg>