<?xml version="1.0" encoding="utf-8"?>
<!-- Generator: Adobe Illustrator 22.0.1, SVG Export Plug-In . SVG Version: 6.00 Build 0)  -->
<svg version="1.1" id="Livello_1" xmlns="http://www.w3.org/2000/svg" xmlns:xlink="http://www.w3.org/1999/xlink" x="0px" y="0px"
	 viewBox="0 0 1920 1080" style="enable-background:new 0 0 1920 1080;" xml:space="preserve">
<style type="text/css">
	.st0{fill:url(#SVGID_1_);}
</style>
<linearGradient id="SVGID_1_" gradientUnits="userSpaceOnUse" x1="1532.9033" y1="1100.7267" x2="366.7614" y2="-65.4152">
	<stop  offset="0" style="stop-color:#181830"/>
	<stop  offset="1" style="stop-color:#FF4848"/>
</linearGradient>
<path class="st0" d="M225.6,490.7h4.9l15.4,36.7l15.7-36.7h4.9l-17.6,41l22.4,51.8l40-93.7h5.3l-43,99.4h-4.8l-22.8-52.9l-22.8,52.9
	h-4.8l-42.8-99.4h5.2l40.2,93.7l22.3-51.8L225.6,490.7z M382.2,590c-6.9,0-13.2-1.4-18.9-4.3c-5.7-2.9-10.6-6.7-14.7-11.3
	c-4.1-4.7-7.3-10-9.5-16.1c-2.2-6.1-3.4-12.3-3.4-18.6c0-6.6,1.2-13,3.6-19c2.4-6.1,5.6-11.4,9.8-16.1c4.2-4.7,9.1-8.4,14.7-11.1
	c5.6-2.8,11.8-4.1,18.4-4.1c6.9,0,13.2,1.5,18.9,4.4c5.7,2.9,10.6,6.8,14.6,11.5c4.1,4.8,7.2,10.1,9.4,16.2c2.2,6,3.4,12.1,3.4,18.3
	c0,6.7-1.2,13.1-3.6,19.2c-2.4,6.1-5.6,11.4-9.8,16c-4.2,4.6-9.1,8.3-14.7,11.1C394.8,588.6,388.7,590,382.2,590z M340.6,539.6
	c0,6,1,11.7,3.1,17.2c2.1,5.5,4.9,10.4,8.6,14.6c3.7,4.2,8.1,7.6,13.2,10.2c5.1,2.5,10.7,3.8,16.7,3.8c6.3,0,11.9-1.3,17-4
	c5.1-2.7,9.4-6.1,13.1-10.4c3.6-4.3,6.4-9.2,8.4-14.7c2-5.5,2.9-11.1,2.9-16.7c0-6-1-11.7-3.1-17.2c-2.1-5.5-5-10.4-8.7-14.6
	c-3.7-4.2-8.1-7.6-13.2-10.2c-5.1-2.5-10.6-3.8-16.5-3.8c-6.3,0-11.9,1.3-17,4c-5.1,2.7-9.5,6.1-13.1,10.4
	c-3.6,4.3-6.5,9.2-8.5,14.6C341.6,528.3,340.6,533.9,340.6,539.6z M462.4,589.3v-99.4h40.9c4.1,0,7.9,0.9,11.4,2.7
	c3.5,1.8,6.5,4.1,9,6.9c2.5,2.8,4.5,6.1,5.9,9.7s2.1,7.3,2.1,11.1c0,3.8-0.6,7.5-1.8,10.9c-1.2,3.5-2.8,6.5-5,9.2
	c-2.1,2.7-4.7,4.9-7.7,6.7c-3,1.8-6.3,2.8-9.9,3.2l24.9,38.9h-5.6L502,550.9h-34.7v38.4H462.4z M467.3,546.4h36.8
	c3.5,0,6.6-0.7,9.4-2.2c2.8-1.5,5.2-3.5,7.2-5.9c2-2.4,3.5-5.2,4.6-8.4c1.1-3.2,1.6-6.4,1.6-9.7c0-3.4-0.6-6.6-1.9-9.7
	c-1.3-3.1-3-5.9-5.1-8.3c-2.1-2.4-4.7-4.3-7.6-5.7c-2.9-1.4-6-2.2-9.2-2.2h-35.8V546.4z M566.7,589.3v-99.4h4.9v62.6l60.8-62.6h6
	l-41.9,43.5l43.8,55.9h-5.7l-41.4-52.9l-21.6,22.1v30.8H566.7z M717,589.3v-99.4h4.9v99.4H717z M767.7,499.1v90.2h-4.9v-99.4h3.6
	l73.1,91.7v-91.7h4.9v99.4h-4.8L767.7,499.1z M935.6,589.3v-99.4h40.7c4.1,0,7.9,0.9,11.3,2.7c3.5,1.8,6.4,4.1,9,6.9
	c2.5,2.8,4.5,6.1,5.9,9.7c1.4,3.6,2.2,7.3,2.2,11.1c0,3.9-0.7,7.7-2,11.4c-1.4,3.7-3.2,7-5.7,9.8c-2.4,2.8-5.3,5.1-8.7,6.9
	c-3.4,1.7-7.1,2.6-11.2,2.6h-36.7v38.4H935.6z M940.5,546.4H977c3.5,0,6.7-0.7,9.5-2.2c2.8-1.5,5.2-3.5,7.1-5.9
	c2-2.5,3.5-5.3,4.5-8.4c1.1-3.1,1.6-6.3,1.6-9.6c0-3.4-0.6-6.6-1.9-9.7c-1.3-3.1-3-5.9-5.1-8.3c-2.1-2.4-4.6-4.3-7.5-5.7
	c-2.8-1.4-5.9-2.2-9.2-2.2h-35.7V546.4z M1036.4,589.3v-99.4h40.9c4.1,0,7.9,0.9,11.4,2.7c3.5,1.8,6.5,4.1,9,6.9
	c2.5,2.8,4.5,6.1,5.9,9.7c1.4,3.6,2.1,7.3,2.1,11.1c0,3.8-0.6,7.5-1.8,10.9c-1.2,3.5-2.8,6.5-5,9.2c-2.1,2.7-4.7,4.9-7.7,6.7
	c-3,1.8-6.3,2.8-9.9,3.2l24.9,38.9h-5.6l-24.6-38.4h-34.7v38.4H1036.4z M1041.3,546.4h36.8c3.5,0,6.6-0.7,9.5-2.2
	c2.8-1.5,5.2-3.5,7.2-5.9c2-2.4,3.5-5.2,4.5-8.4c1.1-3.2,1.6-6.4,1.6-9.7c0-3.4-0.6-6.6-1.9-9.7c-1.3-3.1-3-5.9-5.1-8.3
	c-2.1-2.4-4.7-4.3-7.6-5.7c-2.9-1.4-6-2.2-9.2-2.2h-35.8V546.4z M1180.1,590c-6.9,0-13.2-1.4-18.9-4.3c-5.7-2.9-10.6-6.7-14.7-11.3
	c-4.1-4.7-7.3-10-9.5-16.1c-2.2-6.1-3.4-12.3-3.4-18.6c0-6.6,1.2-13,3.6-19c2.4-6.1,5.6-11.4,9.8-16.1c4.2-4.7,9.1-8.4,14.7-11.1
	c5.6-2.8,11.8-4.1,18.4-4.1c6.9,0,13.2,1.5,18.9,4.4c5.7,2.9,10.6,6.8,14.6,11.5c4.1,4.8,7.2,10.1,9.5,16.2c2.2,6,3.4,12.1,3.4,18.3
	c0,6.7-1.2,13.1-3.6,19.2c-2.4,6.1-5.6,11.4-9.8,16c-4.2,4.6-9.1,8.3-14.7,11.1C1192.8,588.6,1186.7,590,1180.1,590z M1138.6,539.6
	c0,6,1,11.7,3.1,17.2c2.1,5.5,4.9,10.4,8.6,14.6c3.7,4.2,8.1,7.6,13.2,10.2c5.1,2.5,10.7,3.8,16.7,3.8c6.3,0,11.9-1.3,17-4
	c5.1-2.7,9.5-6.1,13.1-10.4c3.6-4.3,6.4-9.2,8.4-14.7c2-5.5,2.9-11.1,2.9-16.7c0-6-1.1-11.7-3.2-17.2c-2.1-5.5-5-10.4-8.7-14.6
	c-3.7-4.2-8.1-7.6-13.2-10.2c-5.1-2.5-10.6-3.8-16.5-3.8c-6.3,0-11.9,1.3-17,4c-5.1,2.7-9.5,6.1-13.1,10.4
	c-3.6,4.3-6.5,9.2-8.5,14.6C1139.6,528.3,1138.6,533.9,1138.6,539.6z M1334.8,573c-10.1,11.3-21.7,16.9-34.7,16.9
	c-6.8,0-13.1-1.5-18.8-4.4s-10.7-6.8-14.8-11.5c-4.1-4.8-7.3-10.2-9.7-16.2c-2.3-6-3.5-12.1-3.5-18.3c0-6.5,1.1-12.8,3.4-18.9
	c2.2-6.1,5.4-11.4,9.5-16.1c4.1-4.7,8.9-8.4,14.4-11.2c5.6-2.8,11.6-4.2,18.3-4.2c5,0,9.6,0.5,13.6,1.6c4,1.1,7.6,2.6,10.6,4.5
	c3.1,1.9,5.7,4.2,8,6.9c2.2,2.7,4.2,5.6,5.7,8.8l-4.1,2.1c-3.6-6.8-8.4-11.7-14.1-14.7c-5.8-3-12.4-4.5-19.9-4.5
	c-6.3,0-11.9,1.3-16.9,4c-5,2.7-9.2,6.1-12.7,10.4c-3.5,4.3-6.2,9.2-8.1,14.6c-1.9,5.5-2.8,11-2.8,16.7c0,6.1,1.1,11.9,3.3,17.4
	c2.2,5.5,5.2,10.4,9,14.6c3.8,4.2,8.2,7.6,13.4,10.1c5.1,2.5,10.6,3.8,16.5,3.8c6.3,0,12.2-1.4,17.8-4.3c5.6-2.9,11.2-7.5,16.6-13.7
	v-21.6h-23v-4.2h27.4v47.7h-4.5V573z M1375,589.3v-99.4h40.9c4.1,0,7.9,0.9,11.4,2.7c3.5,1.8,6.5,4.1,9,6.9c2.5,2.8,4.5,6.1,5.9,9.7
	c1.4,3.6,2.1,7.3,2.1,11.1c0,3.8-0.6,7.5-1.8,10.9c-1.2,3.5-2.8,6.5-5,9.2c-2.1,2.7-4.7,4.9-7.7,6.7c-3,1.8-6.3,2.8-9.9,3.2
	l24.9,38.9h-5.6l-24.6-38.4h-34.7v38.4H1375z M1379.9,546.4h36.8c3.5,0,6.6-0.7,9.5-2.2c2.8-1.5,5.2-3.5,7.2-5.9
	c2-2.4,3.5-5.2,4.5-8.4c1.1-3.2,1.6-6.4,1.6-9.7c0-3.4-0.6-6.6-1.9-9.7c-1.3-3.1-3-5.9-5.1-8.3c-2.1-2.4-4.7-4.3-7.6-5.7
	c-2.9-1.4-6-2.2-9.2-2.2h-35.8V546.4z M1545,584.8v4.5h-65.7v-99.4h64.4v4.5h-59.5v41.9h52.1v4.5h-52.1v44.1H1545z M1635,504.6
	c-3.6-4-7.7-6.8-12-8.5c-4.4-1.6-9.5-2.5-15.4-2.5c-10.5,0-18.2,2-23,6c-4.8,4-7.1,9.4-7.1,16.1c0,3.4,0.6,6.2,1.8,8.5
	c1.2,2.3,3,4.2,5.4,5.8c2.4,1.6,5.6,2.9,9.4,4c3.8,1.1,8.4,2.2,13.7,3.3c5.4,1.1,10.3,2.3,14.7,3.6c4.4,1.3,8.1,3,11.2,5
	c3.1,2,5.5,4.5,7.1,7.5c1.7,3,2.5,6.7,2.5,11.1c0,4.2-0.8,7.9-2.5,11.1c-1.6,3.2-4,5.8-7.1,8c-3.1,2.1-6.8,3.8-11.1,4.8
	c-4.3,1.1-9.2,1.6-14.5,1.6c-7.9,0-15.1-1.2-21.4-3.7c-6.3-2.5-12.2-6.3-17.6-11.4l2.9-3.5c4.7,4.8,10,8.4,16,10.8
	c6,2.4,12.7,3.6,20.3,3.6c9.3,0,16.7-1.7,22-5.1c5.4-3.4,8.1-8.6,8.1-15.6c0-3.5-0.7-6.6-2-9c-1.3-2.5-3.3-4.6-5.9-6.3
	c-2.7-1.7-6-3.2-10.1-4.5c-4.1-1.3-8.8-2.4-14.4-3.6c-5.4-1.1-10.2-2.3-14.3-3.5c-4.2-1.2-7.7-2.8-10.5-4.6c-2.8-1.9-5-4.2-6.4-6.9
	c-1.4-2.7-2.2-6.1-2.2-10.2c0-4.4,0.8-8.3,2.5-11.7c1.7-3.4,4-6.3,7.1-8.5c3-2.3,6.7-4,11-5.2c4.3-1.2,9.1-1.8,14.3-1.8
	c6.4,0,12.1,0.9,16.9,2.8c4.9,1.9,9.3,4.9,13.3,9L1635,504.6z M1733.4,504.6c-3.6-4-7.7-6.8-12-8.5c-4.4-1.6-9.5-2.5-15.4-2.5
	c-10.5,0-18.2,2-23,6c-4.8,4-7.1,9.4-7.1,16.1c0,3.4,0.6,6.2,1.8,8.5c1.2,2.3,3,4.2,5.4,5.8c2.4,1.6,5.6,2.9,9.4,4
	c3.8,1.1,8.4,2.2,13.7,3.3c5.4,1.1,10.3,2.3,14.7,3.6c4.4,1.3,8.1,3,11.2,5c3.1,2,5.5,4.5,7.1,7.5c1.7,3,2.5,6.7,2.5,11.1
	c0,4.2-0.8,7.9-2.5,11.1c-1.6,3.2-4,5.8-7.1,8c-3.1,2.1-6.8,3.8-11.1,4.8c-4.3,1.1-9.2,1.6-14.5,1.6c-7.9,0-15.1-1.2-21.4-3.7
	c-6.3-2.5-12.2-6.3-17.6-11.4l2.9-3.5c4.7,4.8,10,8.4,16,10.8c6,2.4,12.7,3.6,20.3,3.6c9.3,0,16.7-1.7,22-5.1
	c5.4-3.4,8.1-8.6,8.1-15.6c0-3.5-0.7-6.6-2-9c-1.3-2.5-3.3-4.6-5.9-6.3c-2.7-1.7-6-3.2-10.1-4.5c-4.1-1.3-8.8-2.4-14.4-3.6
	c-5.4-1.1-10.2-2.3-14.3-3.5c-4.2-1.2-7.7-2.8-10.5-4.6c-2.8-1.9-5-4.2-6.4-6.9c-1.4-2.7-2.2-6.1-2.2-10.2c0-4.4,0.8-8.3,2.5-11.7
	c1.7-3.4,4-6.3,7.1-8.5c3-2.3,6.7-4,11-5.2c4.3-1.2,9.1-1.8,14.3-1.8c6.4,0,12.1,0.9,16.9,2.8c4.9,1.9,9.3,4.9,13.3,9L1733.4,504.6z
	"/>
</svg>
